<svg width="88" height="88" viewBox="0 0 88 88" fill="none" xmlns="http://www.w3.org/2000/svg">
<mask id="mask0" mask-type="alpha" maskUnits="userSpaceOnUse" x="7" y="14" width="59" height="38">
<path d="M61.8092 14.6665H11.5235C9.20915 14.6665 7.33301 16.4905 7.33301 18.7406V47.2591C7.33301 49.5091 9.20915 51.3332 11.5235 51.3332H61.8092C64.1235 51.3332 65.9997 49.5091 65.9997 47.2591V18.7406C65.9997 16.4905 64.1235 14.6665 61.8092 14.6665Z" fill="white"/>
</mask>
<g mask="url(#mask0)">
<path d="M61.8092 14.6665H11.5235C9.20915 14.6665 7.33301 16.4905 7.33301 18.7406V47.2591C7.33301 49.5091 9.20915 51.3332 11.5235 51.3332H61.8092C64.1235 51.3332 65.9997 49.5091 65.9997 47.2591V18.7406C65.9997 16.4905 64.1235 14.6665 61.8092 14.6665Z" fill="url(#paint0_linear)"/>
<g opacity="0.5">
<path fill-rule="evenodd" clip-rule="evenodd" d="M77.9861 2.99023C77.9319 3.14489 77.8672 3.32493 77.7917 3.52912C77.4838 4.36182 77.1013 5.30374 76.6397 6.33644C75.3226 9.28331 73.6352 12.3713 71.541 15.4527C67.6962 21.1102 63.2469 24.3457 56.6979 26.0983C63.1234 24.7804 67.5564 21.8825 71.834 15.9237C73.8894 13.0606 75.6782 9.99537 77.1903 6.93342C77.7194 5.86187 78.176 4.86768 78.5588 3.97648C78.6675 3.72354 78.759 3.50531 78.8333 3.32454L77.9861 2.99023ZM38.3258 30.0429C36.5624 30.5468 35.2705 31.0307 34.3578 31.5313C29.2233 34.3471 27.4267 37.7953 30.1352 44.997L30.7162 46.542L29.3756 45.579C25.8898 43.075 23.1991 42.0613 18.7588 42.1577C23.3077 43.583 27.5449 46.2584 28.7919 48.6084C28.8237 48.663 28.8659 48.74 28.9051 48.826C29.0451 49.133 29.104 49.4457 29.0213 49.7713C28.7988 50.6469 27.7357 51.051 25.6279 50.9619C26.2133 51.2466 26.82 51.5266 27.4397 51.795C28.7634 52.3684 30.0487 52.8455 31.2564 53.1942C33.4828 53.8371 35.3135 54.0043 36.5895 53.6076C39.1545 52.8098 39.2745 50.5026 37.6153 46.1669C37.4143 45.6416 37.1934 45.0984 36.9013 44.4035C36.8013 44.1656 36.3998 43.2186 36.3155 43.0151C36.2649 42.9141 36.1799 42.7311 36.072 42.4767C35.8939 42.0566 35.7161 41.586 35.5502 41.0752C34.9676 39.2811 34.6739 37.4611 34.8292 35.7453C35.0238 33.5948 35.9183 31.7923 37.643 30.4917C37.8486 30.3367 38.0757 30.1873 38.3258 30.0429Z" stroke="white" stroke-width="0.5"/>
<path fill-rule="evenodd" clip-rule="evenodd" d="M45.8394 25.5108C47.8425 25.1621 49.7352 24.8325 51.5785 24.4273C59.7944 22.6219 64.5561 19.6318 68.5621 13.7629C72.9524 7.3303 75.3234 0.78215 75.347 0.716688L75.485 0.332031H75.0646H73.4713H73.2562L73.1881 0.529863C73.1681 0.587793 71.1518 6.38343 67.0435 12.7676C65.2856 15.4996 60.9273 20.4208 51.4907 22.681C49.9646 23.0468 48.268 23.3726 46.4721 23.7176C40.3293 24.8976 33.3667 26.235 29.4951 29.8747L29.8665 30.3254C34.2977 27.5204 40.165 26.4988 45.8394 25.5108Z" fill="white"/>
<path fill-rule="evenodd" clip-rule="evenodd" d="M41.4274 23.3056C42.986 23.0073 44.7522 22.6689 47.0244 22.1016C54.5893 20.212 59.7667 16.9314 62.8525 12.0722C66.4236 6.44891 69.3646 -2.73201 69.3939 -2.82414L69.4858 -3.11277L69.1916 -3.18642L67.5529 -3.59619L67.269 -3.66699L67.2061 -3.38121C67.1928 -3.32035 65.8382 2.75021 62.6451 8.84665C59.4185 15.0059 54.6723 18.5497 46.7741 20.696C45.2147 21.1197 43.8297 21.4061 42.4901 21.6833C38.9543 22.4147 35.9004 23.0463 31.4941 25.8293L31.7684 26.3264C35.883 24.3671 38.2088 23.9218 41.4274 23.3056Z" fill="white"/>
<path fill-rule="evenodd" clip-rule="evenodd" d="M40.9069 20.2727C42.2342 20.0491 43.6067 19.818 45.2303 19.3875C51.4182 17.7467 56.4545 14.1837 59.0472 9.61154C61.7508 4.84414 63.4204 -2.72131 63.437 -2.79705L63.4875 -3.02846L63.2613 -3.11451L62.1296 -3.54419L61.8062 -3.66699L61.7448 -3.33394C61.7351 -3.28159 60.7506 1.96115 58.3933 7.13595C56.024 12.3372 51.8254 15.6721 44.7798 17.9495C43.485 18.3677 42.3159 18.6122 41.1851 18.8484C38.7833 19.3504 36.5148 19.8247 33.4941 21.848L33.7821 22.3273C36.5302 21.0101 38.5584 20.6682 40.9069 20.2727Z" fill="white"/>
<path fill-rule="evenodd" clip-rule="evenodd" d="M16.8679 48.0323C15.2972 46.6018 13.8136 45.2501 11.0066 44.5903C10.249 44.4127 9.39542 44.3223 8.46912 44.3223C7.30554 44.3223 6.30877 44.4656 5.81805 44.5511L5.5 44.6065L5.60193 44.9099L5.77126 45.4133L5.84005 45.6174L6.05645 45.6014C6.23386 45.5882 6.40068 45.5678 6.56221 45.5485C6.91313 45.5054 7.31055 45.4572 7.94609 45.4572C8.4332 45.4572 8.99661 45.485 9.66836 45.5427C12.1905 45.7591 13.8083 46.9817 15.6609 48.5578C17.0877 49.7719 18.6618 51.0061 20.8258 51.5942L23.496 52.3205L21.0252 51.0824C19.2271 50.1813 18.0279 49.0889 16.8679 48.0323Z" fill="white"/>
<path fill-rule="evenodd" clip-rule="evenodd" d="M15.1638 48.9701C13.8365 47.9072 12.5832 46.9035 10.2579 46.4679C9.73965 46.3708 9.16713 46.3218 8.55573 46.3218C8.42741 46.3218 8.29692 46.3238 8.1649 46.3281C7.77221 46.3411 7.4079 46.3428 7.13429 46.3428L6.81533 46.3422L6.55189 46.3417C6.29 46.3417 6.08363 46.344 5.92693 46.3558L5.5 46.3881L5.66781 46.7557L5.89423 47.2534L5.98338 47.4487L6.20949 47.4274C6.22183 47.428 6.26871 47.443 6.30018 47.4528C6.37761 47.477 6.47354 47.5075 6.58582 47.5075C6.61513 47.5075 6.64443 47.5055 6.67343 47.5012C6.87178 47.4718 7.10653 47.4654 7.43135 47.4574C7.53839 47.4545 7.65499 47.4513 7.7827 47.4473C7.91226 47.443 8.04829 47.4409 8.19173 47.4409C8.48386 47.4409 8.80344 47.4496 9.16898 47.4672C11.1978 47.5646 12.2883 48.2991 14.041 49.5885C15.4316 50.612 16.841 51.5571 18.7915 51.877L21.4965 52.3205L18.9639 51.3275C17.2858 50.6691 16.2071 49.8052 15.1638 48.9701Z" fill="white"/>
</g>
<path fill-rule="evenodd" clip-rule="evenodd" d="M28.4914 28.3398H28.0462V27.7533H28.4725C28.5632 27.7533 28.6082 27.7977 28.6082 27.8856V28.1132C28.6082 28.2101 28.5856 28.3398 28.4914 28.3398ZM27.309 27.6966C27.309 27.5342 27.2584 27.5278 27.2323 27.4322H28.86C29.0993 27.4322 29.3443 27.5424 29.3443 27.7726V28.3209C29.3443 28.5426 29.1371 28.6422 28.8982 28.6422H28.0462V29.0588C28.0462 29.1799 28.0808 29.2446 28.1233 29.3235H27.2323C27.2716 29.2642 27.309 29.1931 27.309 29.0963V27.6966ZM17.7686 27.8667C17.7686 27.5564 17.9447 27.4321 18.2531 27.4321H19.6297C19.7138 27.4321 19.7261 27.7023 19.7261 27.791C19.6531 27.7745 19.6053 27.7536 19.5125 27.7536H18.6225C18.5591 27.7536 18.5052 27.8359 18.5052 27.9049V28.8319C18.5052 28.9443 18.5448 29.0206 18.661 29.0206H18.9123C18.9772 29.0206 19.048 28.9874 19.048 28.9257V28.5102H18.7959C18.7264 28.5102 18.687 28.5259 18.6412 28.5478V28.207H19.8421C19.8231 28.289 19.7846 28.3115 19.7846 28.4156V29.1153C19.7846 29.2176 19.8204 29.2626 19.8616 29.3235C19.7391 29.3235 19.2029 29.3676 19.2029 29.2665V29.191C19.0903 29.2304 19.1458 29.3235 18.9123 29.3235H18.1949C17.9092 29.3235 17.7686 29.192 17.7686 28.9072V27.8667ZM24.7589 27.4321H25.6499C25.6186 27.5469 25.573 27.5741 25.573 27.7536V28.8695C25.573 28.9389 25.6027 28.9602 25.6305 28.9982L25.8834 29.0206H26.3874C26.4581 29.0206 26.542 28.9685 26.542 28.9072V27.6969C26.542 27.5342 26.4913 27.5277 26.4646 27.4321H26.9494C26.928 27.51 26.8788 27.5265 26.8706 27.6394C26.8649 27.7304 26.8716 27.8482 26.8716 27.9425V28.5293C26.8716 28.7422 26.897 28.9118 26.8206 29.0652C26.7667 29.173 26.6085 29.3235 26.4646 29.3235H25.2629C24.5188 29.3235 25.0199 27.9173 24.7589 27.4321ZM20.0494 27.4321H21.6581C21.9402 27.4321 22.1622 27.5585 22.1622 27.8291V28.2449C22.1622 28.4359 22.076 28.5292 21.8681 28.5301L22.2792 29.3235H21.4258C21.4002 29.2166 21.3069 29.0368 21.2591 28.918C21.2299 28.8468 21.1201 28.5292 21.0569 28.5292H20.8636V29.0587C20.8636 29.1799 20.8984 29.2446 20.941 29.3235H20.0494C20.1025 29.2452 20.1269 29.151 20.1269 29.0206V27.6967C20.1269 27.5775 20.0915 27.51 20.0494 27.4321ZM20.8636 27.7536V28.207H21.3091C21.3616 28.207 21.3623 28.1988 21.4068 28.1888C21.4168 28.1459 21.4258 28.1452 21.4258 28.0939V27.8477C21.4258 27.8033 21.3736 27.7536 21.3283 27.7536H20.8636ZM22.3951 28.8319V27.9993C22.3951 27.5894 22.5775 27.4321 22.9953 27.4321H24.0228C24.3865 27.4321 24.5074 27.694 24.5074 28.056V28.8881C24.5074 29.1082 24.3102 29.3235 24.1002 29.3235H22.8596C22.5616 29.3235 22.3951 29.1191 22.3951 28.8319ZM23.1301 27.8667V28.8695C23.1301 28.9389 23.1609 28.9602 23.1895 28.9979L23.4416 29.0206L23.4609 29.0253L23.7122 29.002C23.7405 28.9602 23.7707 28.9389 23.7707 28.8695V27.9049C23.7707 27.792 23.6932 27.7536 23.577 27.7536H23.3252C23.2383 27.7536 23.1301 27.7894 23.1301 27.8667Z" fill="white"/>
<path fill-rule="evenodd" clip-rule="evenodd" d="M11 26.4902H12.2165C12.2116 26.5542 12.1976 26.563 12.1976 26.6336V26.6741C12.1976 26.8596 12.4401 27.4974 12.5041 27.6925C12.559 27.8579 12.8153 28.5706 12.8252 28.6953H12.8626C12.954 28.2752 13.5281 27.0027 13.5281 26.6947V26.4902H14.1557C13.9392 26.8378 13.7371 27.4291 13.5964 27.871C13.4575 28.3089 13.1815 28.8918 13.0911 29.3084H11.9699C11.9603 29.1867 11.5763 28.0666 11.5079 27.8859C11.3184 27.3889 11.2267 26.9497 11 26.4902ZM14.1873 27.4322H15.0786C15.056 27.5271 15.0011 27.5565 15.0011 27.6779V29.0774C15.0011 29.1614 15.0479 29.2676 15.0786 29.3236H14.2065C14.2263 29.2416 14.265 29.2197 14.265 29.1153V27.6969C14.265 27.575 14.2299 27.5101 14.1873 27.4322ZM15.3109 27.4322L16.3671 27.4365L17.1139 28.9258V28.1509C17.1139 28.0184 17.113 27.8856 17.1139 27.7531C17.1155 27.54 17.0732 27.5675 17.0364 27.4322H17.521C17.4781 27.493 17.4243 27.6137 17.4243 27.7158V29.3236H16.5321C16.4156 29.3236 15.8636 27.9736 15.7186 27.8096C15.7186 28.2437 15.6378 29.032 15.796 29.3236H15.3307C15.3576 29.2254 15.4082 29.1914 15.4082 29.04V27.6779C15.4082 27.6095 15.3414 27.476 15.3109 27.4322Z" fill="white"/>
<path fill-rule="evenodd" clip-rule="evenodd" d="M20.1757 18.333C22.403 18.333 24.219 20.1478 24.219 22.3705C24.219 24.5931 22.403 26.4079 20.1757 26.4079C17.9497 26.4079 16.1338 24.5926 16.1338 22.3705C16.1338 20.1478 17.9497 18.333 20.1757 18.333ZM17.7318 24.5882L18.0588 24.5876L17.8166 24.3541L17.9138 24.04L17.6238 24.201L17.3595 24.0107L17.4215 24.3396L17.1605 24.5365L17.4884 24.5791L17.5913 24.8939L17.7318 24.5882ZM18.8917 25.3305L19.2139 25.217L18.897 25.0883L18.8823 24.7677L18.6564 25.0109L18.329 24.9247L18.503 25.201L18.3155 25.4728L18.6491 25.3993L18.8618 25.6509L18.8917 25.3305ZM20.4417 25.6509L20.3703 25.3213L20.6256 25.1118L20.2998 25.0826L20.1851 24.7677L20.055 25.0748L19.7272 25.0916L19.9732 25.3132L19.8856 25.6356L20.1679 25.4643L20.4417 25.6509ZM21.7021 25.4018L22.0373 25.4782L21.8523 25.205L22.0311 24.9301L21.6991 25.0135L21.4772 24.7677L21.4559 25.0886L21.1389 25.2133L21.4583 25.33L21.484 25.6509L21.7021 25.4018ZM21.0079 19.8585C21.28 19.4843 21.6874 19.2185 22.4223 19.0956C22.4223 19.0939 22.4217 19.0922 22.4217 19.09C17.8757 19.5739 19.8212 22.8368 19.8412 22.8778C19.8224 22.852 18.8613 21.7407 17.1605 21.9002C18.7075 22.2583 20.5656 23.871 18.5516 23.7055C19.3624 24.143 20.6122 24.5378 21.1279 24.3341C22.5496 23.7392 19.9528 21.3073 21.0079 19.8585ZM22.9962 24.5748L23.3206 24.5352L23.0521 24.3326L23.1129 24.0107L22.8445 24.205L22.5588 24.0477L22.6584 24.3659L22.4223 24.5913L22.7522 24.5941L22.8905 24.8939L22.9962 24.5748Z" fill="white"/>
</g>
<mask id="mask1" mask-type="alpha" maskUnits="userSpaceOnUse" x="22" y="33" width="59" height="37">
<path d="M76.4762 33H26.1905C23.8761 33 22 34.824 22 37.0741V65.5926C22 67.8426 23.8761 69.6667 26.1905 69.6667H76.4762C78.7905 69.6667 80.6667 67.8426 80.6667 65.5926V37.0741C80.6667 34.824 78.7905 33 76.4762 33Z" fill="white"/>
</mask>
<g mask="url(#mask1)">
<path d="M76.4762 33H26.1905C23.8761 33 22 34.824 22 37.0741V65.5926C22 67.8426 23.8761 69.6667 26.1905 69.6667H76.4762C78.7905 69.6667 80.6667 67.8426 80.6667 65.5926V37.0741C80.6667 34.824 78.7905 33 76.4762 33Z" fill="url(#paint1_linear)"/>
<g opacity="0.5">
<path fill-rule="evenodd" clip-rule="evenodd" d="M92.653 21.3237C92.5989 21.4784 92.5342 21.6584 92.4587 21.8626C92.1508 22.6953 91.7683 23.6372 91.3067 24.6699C89.9896 27.6168 88.3021 30.7048 86.208 33.7862C82.3632 39.4437 77.9139 42.6792 71.3649 44.4318C77.7904 43.1139 82.2234 40.216 86.501 34.2572C88.5564 31.3941 90.3452 28.3289 91.8573 25.2669C92.3864 24.1954 92.843 23.2012 93.2258 22.31C93.3344 22.057 93.426 21.8388 93.5003 21.658L92.653 21.3237ZM52.9928 48.3764C51.2294 48.8803 49.9375 49.3642 49.0247 49.8648C43.8903 52.6806 42.0937 56.1288 44.8022 63.3305L45.3832 64.8755L44.0426 63.9125C40.5567 61.4085 37.8661 60.3948 33.4258 60.4912C37.9747 61.9165 42.2119 64.5919 43.4589 66.9419C43.4907 66.9965 43.5329 67.0735 43.5721 67.1595C43.7121 67.4664 43.771 67.7792 43.6883 68.1048C43.4658 68.9804 42.4026 69.3845 40.2949 69.2954C40.8803 69.5801 41.487 69.8601 42.1067 70.1285C43.4304 70.7019 44.7157 71.179 45.9234 71.5277C48.1498 72.1706 49.9805 72.3378 51.2564 71.9411C53.8215 71.1433 53.9415 68.8361 52.2823 64.5004C52.0813 63.9751 51.8604 63.4319 51.5683 62.737C51.4683 62.4991 51.0668 61.5521 50.9825 61.3486C50.9319 61.2476 50.8469 61.0646 50.739 60.8102C50.5609 60.3901 50.3831 59.9195 50.2172 59.4087C49.6346 57.6146 49.3409 55.7946 49.4962 54.0788C49.6908 51.9283 50.5853 50.1258 52.31 48.8252C52.5156 48.6702 52.7427 48.5208 52.9928 48.3764Z" stroke="white" stroke-width="0.5"/>
<path fill-rule="evenodd" clip-rule="evenodd" d="M60.5064 43.8443C62.5095 43.4956 64.4022 43.166 66.2455 42.7608C74.4614 40.9554 79.2231 37.9653 83.2291 32.0964C87.6194 25.6638 89.9904 19.1156 90.014 19.0502L90.152 18.6655H89.7316H88.1383H87.9232L87.8551 18.8634C87.8351 18.9213 85.8188 24.7169 81.7105 31.1011C79.9526 33.8331 75.5943 38.7543 66.1577 41.0144C64.6316 41.3803 62.935 41.7061 61.1391 42.0511C54.9963 43.2311 48.0337 44.5685 44.1621 48.2082L44.5335 48.6589C48.9647 45.8539 54.832 44.8323 60.5064 43.8443Z" fill="white"/>
<path fill-rule="evenodd" clip-rule="evenodd" d="M56.0944 41.6391C57.6529 41.3408 59.4191 41.0024 61.6914 40.4351C69.2563 38.5455 74.4337 35.2649 77.5195 30.4057C81.0906 24.7824 84.0316 15.6015 84.0609 15.5094L84.1528 15.2207L83.8586 15.1471L82.2199 14.7373L81.936 14.6665L81.8731 14.9523C81.8597 15.0131 80.5052 21.0837 77.3121 27.1801C74.0855 33.3394 69.3393 36.8832 61.4411 39.0295C59.8817 39.4532 58.4967 39.7396 57.1571 40.0168C53.6213 40.7482 50.5674 41.3798 46.1611 44.1628L46.4354 44.6599C50.55 42.7006 52.8758 42.2553 56.0944 41.6391Z" fill="white"/>
<path fill-rule="evenodd" clip-rule="evenodd" d="M55.5738 38.6062C56.9012 38.3826 58.2737 38.1515 59.8973 37.721C66.0852 36.0802 71.1215 32.5172 73.7142 27.945C76.4178 23.1776 78.0874 15.6122 78.104 15.5364L78.1545 15.305L77.9283 15.219L76.7966 14.7893L76.4732 14.6665L76.4118 14.9996C76.4021 15.0519 75.4175 20.2946 73.0603 25.4694C70.691 30.6707 66.4924 34.0056 59.4468 36.283C58.152 36.7012 56.9829 36.9457 55.8521 37.1819C53.4503 37.6839 51.1818 38.1582 48.1611 40.1815L48.4491 40.6608C51.1972 39.3436 53.2254 39.0017 55.5738 38.6062Z" fill="white"/>
<path fill-rule="evenodd" clip-rule="evenodd" d="M31.5349 66.3658C29.9642 64.9353 28.4806 63.5836 25.6736 62.9238C24.916 62.7462 24.0624 62.6558 23.1361 62.6558C21.9725 62.6558 20.9758 62.7991 20.485 62.8846L20.167 62.94L20.2689 63.2434L20.4383 63.7468L20.507 63.9509L20.7234 63.9349C20.9008 63.9217 21.0677 63.9013 21.2292 63.882C21.5801 63.8389 21.9775 63.7907 22.6131 63.7907C23.1002 63.7907 23.6636 63.8185 24.3353 63.8762C26.8575 64.0926 28.4753 65.3152 30.3279 66.8913C31.7547 68.1054 33.3288 69.3396 35.4927 69.9277L38.163 70.654L35.6922 69.416C33.8941 68.5149 32.6949 67.4224 31.5349 66.3658Z" fill="white"/>
<path fill-rule="evenodd" clip-rule="evenodd" d="M29.8308 67.3037C28.5035 66.2407 27.2501 65.237 24.9249 64.8014C24.4066 64.7043 23.8341 64.6553 23.2227 64.6553C23.0944 64.6553 22.9639 64.6573 22.8319 64.6616C22.4392 64.6746 22.0749 64.6763 21.8013 64.6763L21.4823 64.6757L21.2189 64.6752C20.957 64.6752 20.7506 64.6775 20.5939 64.6893L20.167 64.7215L20.3348 65.0892L20.5612 65.5869L20.6504 65.7822L20.8765 65.7609C20.8888 65.7615 20.9357 65.7765 20.9672 65.7863C21.0446 65.8105 21.1405 65.841 21.2528 65.841C21.2821 65.841 21.3114 65.839 21.3404 65.8347C21.5388 65.8053 21.7735 65.7989 22.0983 65.7909C22.2054 65.788 22.322 65.7848 22.4497 65.7808C22.5793 65.7765 22.7153 65.7744 22.8587 65.7744C23.1509 65.7744 23.4704 65.7831 23.836 65.8007C25.8648 65.8981 26.9552 66.6326 28.708 67.922C30.0986 68.9455 31.508 69.8907 33.4585 70.2105L36.1635 70.654L33.6309 69.661C31.9528 69.0026 30.8741 68.1387 29.8308 67.3037Z" fill="white"/>
</g>
<path fill-rule="evenodd" clip-rule="evenodd" d="M43.1584 46.6733H42.7132V46.0868H43.1395C43.2302 46.0868 43.2752 46.1312 43.2752 46.2191V46.4467C43.2752 46.5436 43.2526 46.6733 43.1584 46.6733ZM41.976 46.0301C41.976 45.8677 41.9254 45.8613 41.8993 45.7657H43.527C43.7663 45.7657 44.0113 45.8759 44.0113 46.1061V46.6544C44.0113 46.8761 43.8041 46.9757 43.5652 46.9757H42.7132V47.3923C42.7132 47.5134 42.7478 47.5781 42.7903 47.657H41.8993C41.9386 47.5977 41.976 47.5266 41.976 47.4298V46.0301ZM32.4355 46.2002C32.4355 45.8899 32.6117 45.7656 32.9201 45.7656H34.2967C34.3808 45.7656 34.3931 46.0358 34.3931 46.1245C34.3201 46.108 34.2722 46.0871 34.1795 46.0871H33.2895C33.2261 46.0871 33.1722 46.1694 33.1722 46.2384V47.1654C33.1722 47.2778 33.2118 47.3541 33.328 47.3541H33.5793C33.6441 47.3541 33.715 47.3209 33.715 47.2592V46.8437H33.4629C33.3934 46.8437 33.354 46.8594 33.3082 46.8813V46.5405H34.5091C34.4901 46.6225 34.4516 46.6449 34.4516 46.7491V47.4488C34.4516 47.5511 34.4874 47.5961 34.5286 47.657C34.4061 47.657 33.8699 47.7011 33.8699 47.6V47.5245C33.7573 47.5639 33.8128 47.657 33.5793 47.657H32.8618C32.5762 47.657 32.4355 47.5255 32.4355 47.2407V46.2002ZM39.4259 45.7656H40.3169C40.2856 45.8804 40.24 45.9076 40.24 46.0871V47.203C40.24 47.2724 40.2697 47.2937 40.2975 47.3317L40.5504 47.3541H41.0544C41.1251 47.3541 41.209 47.302 41.209 47.2407V46.0304C41.209 45.8677 41.1583 45.8612 41.1316 45.7656H41.6164C41.595 45.8435 41.5458 45.86 41.5376 45.9729C41.5319 46.0639 41.5386 46.1817 41.5386 46.276V46.8628C41.5386 47.0757 41.564 47.2453 41.4876 47.3987C41.4337 47.5065 41.2755 47.657 41.1316 47.657H39.9299C39.1858 47.657 39.6869 46.2508 39.4259 45.7656ZM34.7164 45.7656H36.3251C36.6072 45.7656 36.8292 45.892 36.8292 46.1626V46.5784C36.8292 46.7694 36.7429 46.8627 36.535 46.8636L36.9462 47.657H36.0928C36.0672 47.5501 35.9739 47.3703 35.9261 47.2515C35.8969 47.1803 35.7871 46.8627 35.7239 46.8627H35.5306V47.3922C35.5306 47.5134 35.5654 47.5781 35.608 47.657H34.7164C34.7695 47.5787 34.7939 47.4845 34.7939 47.3541V46.0301C34.7939 45.911 34.7585 45.8435 34.7164 45.7656ZM35.5306 46.0871V46.5405H35.9761C36.0286 46.5405 36.0293 46.5323 36.0738 46.5223C36.0838 46.4794 36.0928 46.4787 36.0928 46.4274V46.1812C36.0928 46.1368 36.0406 46.0871 35.9953 46.0871H35.5306ZM37.0621 47.1654V46.3328C37.0621 45.9229 37.2445 45.7656 37.6623 45.7656H38.6898C39.0535 45.7656 39.1743 46.0275 39.1743 46.3895V47.2216C39.1743 47.4417 38.9771 47.657 38.7672 47.657H37.5266C37.2286 47.657 37.0621 47.4526 37.0621 47.1654ZM37.7971 46.2002V47.203C37.7971 47.2724 37.8279 47.2937 37.8565 47.3314L38.1086 47.3541L38.1279 47.3588L38.3792 47.3355C38.4075 47.2937 38.4377 47.2724 38.4377 47.203V46.2384C38.4377 46.1255 38.3602 46.0871 38.244 46.0871H37.9922C37.9053 46.0871 37.7971 46.1229 37.7971 46.2002Z" fill="white"/>
<path fill-rule="evenodd" clip-rule="evenodd" d="M25.667 44.8237H26.8835C26.8786 44.8877 26.8646 44.8965 26.8646 44.9671V45.0076C26.8646 45.1931 27.1071 45.8309 27.1711 46.026C27.226 46.1913 27.4823 46.9041 27.4922 47.0288H27.5296C27.621 46.6087 28.195 45.3362 28.195 45.0282V44.8237H28.8227C28.6062 45.1713 28.4041 45.7626 28.2634 46.2045C28.1245 46.6424 27.8485 47.2253 27.758 47.6419H26.6369C26.6273 47.5202 26.2433 46.4001 26.1749 46.2194C25.9853 45.7224 25.8937 45.2832 25.667 44.8237ZM28.8543 45.7657H29.7456C29.723 45.8605 29.6681 45.89 29.6681 46.0114V47.4109C29.6681 47.4949 29.7148 47.6011 29.7456 47.6571H28.8735C28.8933 47.5751 28.932 47.5532 28.932 47.4488V46.0304C28.932 45.9085 28.8969 45.8436 28.8543 45.7657ZM29.9779 45.7657L31.0341 45.77L31.7809 47.2593V46.4844C31.7809 46.3519 31.78 46.2191 31.7809 46.0866C31.7825 45.8735 31.7402 45.901 31.7034 45.7657H32.188C32.1451 45.8265 32.0913 45.9472 32.0913 46.0492V47.6571H31.1991C31.0826 47.6571 30.5306 46.3071 30.3856 46.1431C30.3856 46.5772 30.3048 47.3655 30.463 47.6571H29.9977C30.0246 47.5589 30.0752 47.5249 30.0752 47.3735V46.0114C30.0752 45.943 30.0084 45.8095 29.9779 45.7657Z" fill="white"/>
<path fill-rule="evenodd" clip-rule="evenodd" d="M34.8427 36.6665C37.07 36.6665 38.886 38.4813 38.886 40.704C38.886 42.9266 37.07 44.7414 34.8427 44.7414C32.6167 44.7414 30.8008 42.9261 30.8008 40.704C30.8008 38.4813 32.6167 36.6665 34.8427 36.6665ZM32.3988 42.9217L32.7258 42.9211L32.4836 42.6876L32.5808 42.3735L32.2908 42.5345L32.0264 42.3442L32.0885 42.6731L31.8275 42.87L32.1554 42.9126L32.2583 43.2274L32.3988 42.9217ZM33.5587 43.664L33.8809 43.5505L33.564 43.4218L33.5493 43.1012L33.3234 43.3444L32.996 43.2582L33.17 43.5345L32.9825 43.8063L33.3161 43.7328L33.5288 43.9844L33.5587 43.664ZM35.1087 43.9844L35.0373 43.6548L35.2926 43.4453L34.9667 43.4161L34.8521 43.1012L34.722 43.4083L34.3942 43.425L34.6402 43.6467L34.5526 43.9691L34.8348 43.7978L35.1087 43.9844ZM36.3691 43.7353L36.7043 43.8117L36.5193 43.5385L36.6981 43.2636L36.3661 43.347L36.1442 43.1012L36.1229 43.4221L35.8059 43.5468L36.1253 43.6635L36.151 43.9844L36.3691 43.7353ZM35.6749 38.192C35.947 37.8178 36.3544 37.552 37.0893 37.4291C37.0893 37.4274 37.0887 37.4257 37.0887 37.4235C32.5427 37.9074 34.4882 41.1703 34.5082 41.2113C34.4893 41.1855 33.5282 40.0742 31.8275 40.2337C33.3745 40.5918 35.2326 42.2044 33.2186 42.039C34.0294 42.4765 35.2792 42.8713 35.7949 42.6676C37.2166 42.0727 34.6198 39.6407 35.6749 38.192ZM37.6632 42.9083L37.9876 42.8687L37.7191 42.6661L37.7798 42.3442L37.5114 42.5385L37.2258 42.3812L37.3254 42.6994L37.0893 42.9248L37.4192 42.9276L37.5575 43.2274L37.6632 42.9083Z" fill="white"/>
</g>
<defs>
<linearGradient id="paint0_linear" x1="7.33301" y1="13.7498" x2="66.9163" y2="55.9165" gradientUnits="userSpaceOnUse">
<stop stop-color="#8E2422"/>
<stop offset="1" stop-color="#800F53"/>
</linearGradient>
<linearGradient id="paint1_linear" x1="22" y1="33.9167" x2="87.0833" y2="78.8333" gradientUnits="userSpaceOnUse">
<stop stop-color="#18367A"/>
<stop offset="1" stop-color="#3D187A"/>
</linearGradient>
</defs>
</svg>
