<svg width="240" height="132" viewBox="0 0 240 132" fill="none" xmlns="http://www.w3.org/2000/svg">
<rect width="240" height="132" fill="white"/>
<path d="M78.0811 103.533C77.1878 76.1978 36.0957 68.7676 36.0957 68.7676C36.0957 68.7676 66.7788 75.7286 69.6918 108.969C69.7306 109.243 69.7306 109.478 69.7695 109.751C71.1677 110.025 71.9833 110.142 71.9833 110.142L78.0811 103.533Z" fill="url(#paint0_linear)"/>
<path d="M35.6289 68.9629C35.6289 68.9629 43.2414 74.516 44.7173 90.9408C45.8825 103.846 62.8165 108.656 69.3027 109.947C69.2638 109.673 69.2638 109.438 69.225 109.165C66.312 75.9239 35.6289 68.9629 35.6289 68.9629Z" fill="url(#paint1_linear)"/>
<path d="M60.9133 103.808C52.4075 85.0367 21.6855 91.9195 21.6855 91.9195C21.6855 91.9195 45.028 87.7742 56.641 110.026C56.7187 110.182 56.8352 110.378 56.9129 110.534C57.9615 110.339 58.583 110.143 58.583 110.143L60.9133 103.808Z" fill="url(#paint2_linear)"/>
<path d="M21.4141 92.1933C21.4141 92.1933 28.2886 93.8358 34.0757 104.825C38.6199 113.467 51.7865 111.864 56.6414 110.847C56.5637 110.691 56.4472 110.495 56.3695 110.339C44.7565 88.048 21.4141 92.1933 21.4141 92.1933Z" fill="url(#paint3_linear)"/>
<path d="M197.888 75.0814C192.926 62.7594 197.307 54.08 198.29 52.3711C198.201 52.461 198.156 52.506 198.067 52.5959C198.022 52.6409 197.978 52.7309 197.888 52.8658C197.218 53.4504 196.636 54.2599 196.055 54.9794C185.773 68.2458 183.001 100.04 183.001 100.04C183.001 100.04 185.46 67.7511 196.011 54.8895C196.681 54.035 197.352 53.2705 198.067 52.5959C198.112 52.551 198.112 52.551 198.112 52.551C198.112 52.551 165.745 69.9097 174.239 94.6437L181.794 101.03C181.794 101.075 203.432 89.0223 197.888 75.0814Z" fill="url(#paint4_linear)"/>
<path d="M201.33 93.0706C199.81 83.3119 204.46 77.7805 205.488 76.7012C205.399 76.7461 205.354 76.7911 205.264 76.8361C205.22 76.8811 205.175 76.926 205.086 77.016C204.504 77.3308 203.968 77.8254 203.387 78.2302C193.73 86.0551 186.399 108.586 186.399 108.586C186.399 108.586 193.596 85.6504 203.387 78.1402C204.013 77.6456 204.639 77.1959 205.264 76.8361C205.309 76.7911 205.309 76.7911 205.309 76.7911C205.309 76.7911 178.978 83.8965 180.945 103.189L185.326 109.08C185.326 109.125 203.029 104.088 201.33 93.0706Z" fill="url(#paint5_linear)"/>
<path d="M183.986 103.998C191.452 87.5834 218.365 93.6095 218.365 93.6095C218.365 93.6095 197.934 89.9668 187.742 109.484C187.652 109.619 187.563 109.799 187.518 109.934C186.624 109.754 186.087 109.619 186.087 109.619L183.986 103.998Z" fill="url(#paint6_linear)"/>
<path d="M218.589 93.8336C218.589 93.8336 212.554 95.2726 207.502 104.896C203.523 112.452 191.989 111.057 187.742 110.158C187.832 110.023 187.876 109.843 187.966 109.708C198.158 90.1909 218.589 93.8336 218.589 93.8336Z" fill="url(#paint7_linear)"/>
<path d="M215.291 110.861C212.035 110.833 207.416 110.917 200.696 110.889C178.612 110.777 178.7 110.833 98.8879 111.086L23.4568 111.17C23.4568 111.17 16.9439 117.439 52.5872 118.564C88.2008 119.688 88.6449 115.696 114.489 121.572C141.518 127.7 188.47 124.804 203.449 122.921C221.567 120.644 219.436 117.27 197.321 116.849C176.599 116.455 181.779 111.676 215.291 111.733C215.972 111.733 216.002 110.861 215.291 110.861Z" fill="white"/>
<path d="M215.291 110.861C212.035 110.833 207.416 110.917 200.696 110.889C178.612 110.777 178.7 110.833 98.8879 111.086L23.4568 111.17C23.4568 111.17 16.9439 117.439 52.5872 118.564C88.2008 119.688 88.6449 115.696 114.489 121.572C141.518 127.7 188.47 124.804 203.449 122.921C221.567 120.644 219.436 117.27 197.321 116.849C176.599 116.455 181.779 111.676 215.291 111.733C215.972 111.733 216.002 110.861 215.291 110.861Z" fill="url(#paint8_linear)" fill-opacity="0.5"/>
<path d="M186.686 18.1432V92.4099C186.686 94.0438 185.352 95.3695 183.709 95.3695H53.207C51.5637 95.3695 50.2305 94.0438 50.2305 92.4099V18.1432C50.2305 16.5092 51.5637 15.1836 53.207 15.1836H183.709C185.352 15.1836 186.686 16.5092 186.686 18.1432Z" fill="white"/>
<g filter="url(#filter0_i)">
<path d="M186.686 18.1432V92.4099C186.686 94.0438 185.352 95.3695 183.709 95.3695H53.207C51.5637 95.3695 50.2305 94.0438 50.2305 92.4099V18.1432C50.2305 16.5092 51.5637 15.1836 53.207 15.1836H183.709C185.352 15.1836 186.686 16.5092 186.686 18.1432Z" fill="url(#paint9_linear)" fill-opacity="0.5"/>
</g>
<path fill-rule="evenodd" clip-rule="evenodd" d="M143.142 16.5C143.142 16.5 141.309 24.7523 136.862 33.1589C132.025 42.2981 124.886 46.7327 114.861 49.4321C112.733 50.0001 110.829 50.3902 109.017 50.7613C104.187 51.7507 100.016 52.6049 94.0306 56.3347C99.7221 53.6518 102.94 53.045 107.374 52.2088C109.504 51.8071 111.916 51.3523 115.017 50.589C125.979 47.8896 132.649 43.1465 136.472 37.1693C141.387 29.4955 145.405 17.0399 145.405 17.0399L143.142 16.5ZM137.564 38.6348C143.025 29.9969 145.639 22.2459 145.639 22.2459V22.2845H147.667C147.667 22.2845 144.624 30.9224 138.851 39.5603C134.053 46.7329 128.241 51.0519 116.928 53.597C114.555 54.1248 112.062 54.5658 109.534 55.0132C102.087 56.3307 94.3347 57.7022 88.4522 61.5022C93.4184 56.7416 102.472 54.9654 110.399 53.4104L110.399 53.4104L110.399 53.4104H110.399C112.745 52.9501 114.993 52.5092 117.006 52.0159C127.617 49.3937 134.17 43.995 137.564 38.6348ZM140.333 40.4855C146.575 31.3463 148.954 23.6724 148.954 23.6724L151.334 24.5979C151.334 24.5979 148.057 33.1973 141.816 41.8352C134.794 51.5914 127.5 54.7921 117.943 56.0261C109.634 57.1444 100.116 58.5326 96.7219 61.0777C89.8954 66.2065 95.1615 76.6568 95.1615 76.6568C95.2697 76.911 95.3801 77.1688 95.4918 77.4296C97.8373 82.9064 100.745 89.6961 95.1225 91.4261C89.1932 93.2771 77.1396 86.3359 77.1396 86.3359C85.767 87.6338 84.3669 85.0807 84.1079 84.6083C84.0976 84.5895 84.0891 84.5739 84.0831 84.5621C82.2887 81.2072 74.721 76.734 67.1924 75.4614C76.9055 74.4588 80.9624 76.3098 85.8385 79.7804C81.3525 67.9032 87.3208 63.7385 91.6897 61.3477C95.9606 59.0105 106.941 56.9681 116.724 55.1485L117.396 55.0235C128.046 53.0182 134.677 48.7764 140.333 40.4855ZM96.1757 80.3202C93.3671 73.9189 91.4557 68.6745 93.9522 64.047C96.0197 60.1522 99.5695 59.1496 99.5695 59.1496C99.5695 59.1496 85.6044 61.9261 85.1363 70.6411C84.9023 74.9987 85.4094 77.8137 89.6223 84.9863C89.6223 84.9863 83.2249 76.1555 73.8238 76.1941C79.7141 78.0451 86.9307 83.9065 84.9023 86.2974C84.9023 86.2974 84.6682 87.4157 81.5865 87.4928C83.1079 88.7268 90.2464 91.2333 94.0303 90.8092C98.5162 90.3464 98.7503 86.2588 96.1757 80.3202ZM134.17 31.3853C137.447 24.097 138.773 16.8088 138.773 16.8088L140.373 17.4258C140.373 17.4258 138.11 27.8761 134.404 34.5088C131.089 40.3703 124.457 45.4991 115.758 47.8513C113.582 48.4306 111.715 48.7484 109.943 49.0501C106.761 49.5918 103.885 50.0812 100.077 51.9389C104.122 49.1686 107.163 48.5238 110.428 47.8317C111.98 47.5026 113.583 47.1629 115.368 46.5788C124.613 43.5324 130.738 39.0206 134.17 31.3853ZM76.3986 87.5702C73.512 86.799 71.3275 85.1023 69.299 83.4055C66.6855 81.1689 64.345 79.3951 60.6782 79.0866C59.742 79.0094 58.9228 78.9709 58.2206 78.9709C57.53 78.9709 57.0244 79.0166 56.5968 79.0552C56.4689 79.0668 56.348 79.0777 56.2312 79.0866C56.1141 79.1058 55.9971 79.1155 55.8801 79.1251C55.7631 79.1348 55.646 79.1444 55.529 79.1637L55.334 78.4696C55.9971 78.3539 57.3624 78.1611 58.9618 78.1611C60.2101 78.1611 61.3803 78.2768 62.4335 78.5081C66.2564 79.3951 68.3238 81.246 70.4693 83.2127C72.1467 84.7552 73.824 86.2977 76.3986 87.5702ZM66.4905 83.5208C68.1678 84.7934 69.9232 86.0659 72.3418 86.4901C70.222 85.6138 68.8258 84.4364 67.5135 83.3297L67.4657 83.2894L67.408 83.2405C65.7914 81.8705 64.2726 80.5833 61.4584 80.0116C60.6782 79.8574 59.82 79.7803 58.8838 79.8188C58.2597 79.8381 57.6843 79.8381 57.2016 79.8381C56.7188 79.8381 56.3288 79.8381 56.0752 79.8574L56.3483 80.5129C56.4138 80.5129 56.4862 80.5401 56.5626 80.5688C56.6681 80.6085 56.7812 80.651 56.8944 80.6286C57.118 80.6065 57.3417 80.5971 57.6094 80.5858C57.8087 80.5774 58.0324 80.568 58.2987 80.5515C58.8058 80.5515 59.3909 80.5515 60.0931 80.5901C62.7847 80.7443 64.228 81.7469 66.4905 83.5208Z" fill="url(#paint10_linear)"/>
<path d="M167.351 23.2637C166.762 23.2637 166.514 23.6028 166.514 24.3735V29.4295C166.514 30.1693 166.793 30.5393 167.351 30.5393C167.94 30.5393 168.188 30.2002 168.188 29.4295V24.3735C168.188 23.6028 167.909 23.2637 167.351 23.2637Z" fill="#FF5753"/>
<path d="M175.661 25.2632C175.444 24.77 175.134 24.3692 174.7 24.0301C174.421 23.8143 174.142 23.6601 173.863 23.5368C173.553 23.4135 173.243 23.3518 172.933 23.2902C172.623 23.2593 172.25 23.2285 171.878 23.2285H169.863C169.336 23.2593 169.088 23.5368 169.088 24.0609V29.6101C169.088 30.1342 169.336 30.4116 169.863 30.4733H172.25C173.429 30.4733 174.39 30.1342 175.041 29.4868C175.258 29.271 175.444 28.9935 175.599 28.7161C175.754 28.4386 175.847 28.1303 175.94 27.7912C176.002 27.4829 176.033 27.1438 176.033 26.8047C175.971 26.2497 175.878 25.7257 175.661 25.2632ZM174.018 28.0995C173.925 28.4694 173.739 28.7777 173.522 29.0552C173.305 29.3326 173.026 29.5484 172.716 29.7026C172.405 29.8567 172.002 29.9492 171.599 29.9492C171.32 29.9492 171.134 29.9184 171.041 29.8567C170.917 29.7951 170.824 29.6718 170.793 29.5176C170.762 29.3943 170.762 29.1785 170.762 28.901V24.77C170.762 24.5233 170.762 24.3384 170.793 24.215C170.824 24.0917 170.886 23.9684 171.01 23.9068C171.134 23.8451 171.289 23.8143 171.537 23.8143C171.971 23.8143 172.343 23.9068 172.685 24.0609C173.026 24.215 173.305 24.4617 173.522 24.7391C173.739 25.0166 173.894 25.3557 174.018 25.7257C174.142 26.0956 174.173 26.4964 174.173 26.928C174.173 27.3288 174.142 27.7295 174.018 28.0995Z" fill="#FF5753"/>
<path d="M158.359 25.1707C159.041 25.1707 159.134 24.8315 159.134 24.5541C159.134 24.3074 159.041 23.9375 158.359 23.9375C157.677 23.9375 157.584 24.2766 157.584 24.5541C157.615 24.8315 157.677 25.1707 158.359 25.1707Z" fill="#FF5753"/>
<path d="M157.337 22.1191C157.058 22.0266 156.748 22.1808 156.624 22.4891C155.539 25.2328 154.019 29.4255 154.019 29.4255C154.019 29.4255 151.849 24.3696 151.353 23.0131C151.105 22.3657 150.578 21.9958 149.896 22.0883C149.089 22.2116 148.81 22.859 148.934 23.4139C149.182 24.3388 151.973 31.0595 152.376 31.6761C152.593 32.0152 152.903 32.2618 153.43 32.2618C153.988 32.2618 154.36 32.046 154.577 31.5836C154.856 30.967 157.771 22.859 157.771 22.859C157.802 22.7357 157.864 22.2733 157.337 22.1191Z" fill="#FF5753"/>
<path d="M164.561 26.0046C164.22 25.6654 163.724 25.4805 163.135 25.4805C162.546 25.4805 162.05 25.6654 161.647 26.0662L161.523 26.1895L161.492 26.0354C161.368 25.6654 161.151 25.4805 160.748 25.4805C160.221 25.4805 159.973 25.7271 159.973 26.2512V29.7965C159.973 30.3206 160.221 30.5672 160.748 30.5672C161.275 30.5672 161.523 30.3206 161.523 29.7965V27.3919C161.523 27.0527 161.585 26.8061 161.678 26.652C161.864 26.3437 162.174 26.1895 162.577 26.1895C162.949 26.1895 163.197 26.3128 163.321 26.5595C163.414 26.7753 163.476 27.1144 163.476 27.4843V29.7965C163.476 30.3206 163.724 30.5672 164.251 30.5672C164.779 30.5672 165.027 30.3206 165.027 29.7965V27.4535C164.996 26.7753 164.841 26.282 164.561 26.0046Z" fill="#FF5753"/>
<path d="M158.39 25.4805C157.863 25.4805 157.615 25.7271 157.615 26.2512V29.7657C157.615 30.2898 157.863 30.5364 158.39 30.5364C158.917 30.5364 159.166 30.2898 159.166 29.7657V26.2512C159.135 25.7271 158.886 25.4805 158.39 25.4805Z" fill="#FF5753"/>
<path d="M118.659 82.3078H110.659C109.233 82.3078 108.086 81.1672 108.086 79.7491V67.2017C108.086 63.5948 111.031 60.666 114.659 60.666C118.287 60.666 121.232 63.5948 121.232 67.2017V79.7491C121.232 81.1364 120.085 82.3078 118.659 82.3078ZM114.659 61.1901C111.342 61.1901 108.613 63.8722 108.613 67.2017V79.7491C108.613 80.8589 109.543 81.7838 110.659 81.7838H118.659C119.775 81.7838 120.705 80.8589 120.705 79.7491V67.2017C120.705 63.8722 118.008 61.1901 114.659 61.1901Z" fill="#E53935"/>
<path d="M125.418 94.5462L124.085 69.3281H104.954L103.621 94.5153L125.418 94.5462Z" fill="url(#paint11_linear)"/>
<path d="M128.921 90.5058H120.674V78.1743C120.674 76.4478 122.1 75.0605 123.805 75.0605H125.759C127.495 75.0605 128.89 76.4787 128.89 78.1743V90.5058H128.921ZM121.201 89.9817H128.394V78.1743C128.394 76.7253 127.216 75.5846 125.79 75.5846H123.836C122.379 75.5846 121.232 76.7561 121.232 78.1743V89.9817H121.201Z" fill="url(#paint12_linear)"/>
<path d="M131.805 94.4221L130.937 80.4258H118.659L117.791 94.4221H131.805Z" fill="url(#paint13_linear)"/>
<path d="M108.272 92.8503H102.877V85.5747C102.877 84.0949 104.086 82.8926 105.574 82.8926C107.063 82.8926 108.272 84.0949 108.272 85.5747V92.8503ZM103.404 92.3262H107.745V85.5747C107.745 84.3724 106.784 83.4167 105.574 83.4167C104.365 83.4167 103.404 84.3724 103.404 85.5747V92.3262Z" fill="url(#paint14_linear)"/>
<path d="M110.008 95.069L109.45 86.252H101.699L101.172 95.069H110.008Z" fill="url(#paint15_linear)"/>
<path d="M98.3804 95.3415H132.331L140.92 66.1157H146.873C147.183 66.1157 147.431 65.8691 147.431 65.5608C147.431 65.2525 147.183 65.0059 146.873 65.0059H140.083L131.494 94.2316H98.3804C98.0703 94.2316 97.8223 94.4782 97.8223 94.7865C97.8533 95.0948 98.1013 95.3415 98.3804 95.3415Z" fill="#2D3150"/>
<path d="M104.488 102.46H138.191C138.408 102.46 138.594 102.337 138.687 102.152C138.78 101.967 138.749 101.72 138.594 101.566L132.362 94.4448C132.176 94.229 131.804 94.1982 131.587 94.3832C131.37 94.5682 131.339 94.9381 131.525 95.1539L136.95 101.351H104.488C104.178 101.351 103.93 101.597 103.93 101.905C103.93 102.214 104.178 102.46 104.488 102.46Z" fill="#2D3150"/>
<path d="M127.557 105.238C127.557 103.111 129.324 101.354 131.463 101.354C133.603 101.354 135.37 103.111 135.37 105.238C135.37 107.365 133.603 109.122 131.463 109.122C129.293 109.122 127.557 107.396 127.557 105.238ZM128.673 105.238C128.673 106.779 129.913 108.013 131.463 108.013C133.014 108.013 134.254 106.779 134.254 105.238C134.254 103.697 133.014 102.463 131.463 102.463C129.913 102.463 128.673 103.697 128.673 105.238Z" fill="#2D3150"/>
<path d="M131.463 106.902C132.388 106.902 133.138 106.156 133.138 105.237C133.138 104.318 132.388 103.572 131.463 103.572C130.539 103.572 129.789 104.318 129.789 105.237C129.789 106.156 130.539 106.902 131.463 106.902Z" fill="#2D3150"/>
<path d="M113.016 106.902C113.941 106.902 114.69 106.156 114.69 105.237C114.69 104.318 113.941 103.572 113.016 103.572C112.091 103.572 111.342 104.318 111.342 105.237C111.342 106.156 112.091 106.902 113.016 106.902Z" fill="#2D3150"/>
<path d="M109.109 105.238C109.109 103.111 110.877 101.354 113.016 101.354C115.155 101.354 116.923 103.111 116.923 105.238C116.923 107.365 115.155 109.122 113.016 109.122C110.877 109.122 109.109 107.396 109.109 105.238ZM110.226 105.238C110.226 106.779 111.466 108.013 113.016 108.013C114.566 108.013 115.807 106.779 115.807 105.238C115.807 103.697 114.566 102.463 113.016 102.463C111.466 102.463 110.226 103.697 110.226 105.238Z" fill="#2D3150"/>
<path d="M101.202 95.3438C101.264 95.3438 101.295 95.3438 101.357 95.313C101.667 95.2205 101.822 94.943 101.76 94.6348L96.1172 74.0102H138.192C138.502 74.0102 138.75 73.7636 138.75 73.4553C138.75 73.147 138.502 72.9004 138.192 72.9004H94.6289L100.675 94.9122C100.737 95.1897 100.954 95.3438 101.202 95.3438Z" fill="#2D3150"/>
<path d="M143.307 66.5462H146.904C147.431 66.5462 147.865 66.1146 147.865 65.5905C147.865 65.0664 147.431 64.6348 146.904 64.6348H143.307C142.78 64.6348 142.346 65.0664 142.346 65.5905C142.346 66.1146 142.749 66.5462 143.307 66.5462Z" fill="#2D3150"/>
<path d="M94.3811 74.4094H96.6135C97.1406 74.4094 97.5747 73.9778 97.5747 73.4538C97.5747 72.9297 97.1406 72.498 96.6135 72.498H94.3811C93.854 72.498 93.4199 72.9297 93.4199 73.4538C93.4199 73.9778 93.823 74.4094 94.3811 74.4094Z" fill="#2D3150"/>
<path d="M137.076 74.4094H139.309C139.836 74.4094 140.27 73.9778 140.27 73.4538C140.27 72.9297 139.836 72.498 139.309 72.498H137.076C136.549 72.498 136.115 72.9297 136.115 73.4538C136.115 73.9778 136.518 74.4094 137.076 74.4094Z" fill="#2D3150"/>
<path d="M130.41 102.802H132.643C133.17 102.802 133.604 102.37 133.604 101.846C133.604 101.322 133.17 100.891 132.643 100.891H130.41C129.883 100.891 129.449 101.322 129.449 101.846C129.449 102.37 129.883 102.802 130.41 102.802Z" fill="#2D3150"/>
<path d="M111.836 102.802H114.069C114.596 102.802 115.03 102.37 115.03 101.846C115.03 101.322 114.596 100.891 114.069 100.891H111.836C111.309 100.891 110.875 101.322 110.875 101.846C110.875 102.37 111.309 102.802 111.836 102.802Z" fill="#2D3150"/>
<path d="M129.169 95.3384C129.293 95.3384 129.417 95.2459 129.448 95.0918L132.207 73.6041C132.238 73.4499 132.114 73.3266 131.959 73.2958C131.804 73.2649 131.68 73.3883 131.649 73.5424L128.89 95.0301C128.859 95.1843 128.983 95.3076 129.138 95.3384C129.138 95.3384 129.138 95.3384 129.169 95.3384Z" fill="#2D3150"/>
<path d="M125.015 95.3395C125.17 95.3395 125.294 95.2162 125.294 95.062L126.132 73.5743C126.132 73.4202 126.008 73.2969 125.853 73.2969C125.698 73.2969 125.573 73.4202 125.573 73.5743L124.736 95.062C124.736 95.2162 124.829 95.3395 125.015 95.3395C125.015 95.3395 124.984 95.3395 125.015 95.3395Z" fill="#2D3150"/>
<path d="M120.859 95.3395C121.014 95.3395 121.138 95.2162 121.138 95.062L121.417 73.5743C121.417 73.4202 121.293 73.2969 121.138 73.2969C120.983 73.2969 120.859 73.4202 120.859 73.5743L120.58 95.062C120.58 95.2162 120.673 95.3395 120.859 95.3395C120.859 95.3395 120.828 95.3395 120.859 95.3395Z" fill="#2D3150"/>
<path d="M116.394 95.3395C116.549 95.3395 116.673 95.2162 116.673 95.062V73.5743C116.673 73.4202 116.549 73.2969 116.394 73.2969C116.239 73.2969 116.115 73.4202 116.115 73.5743V95.062C116.146 95.2162 116.27 95.3395 116.394 95.3395Z" fill="#2D3150"/>
<path d="M111.96 95.3395C111.96 95.3395 111.991 95.3395 111.96 95.3395C112.115 95.3395 112.239 95.2162 112.239 95.062L111.96 73.5743C111.96 73.4202 111.836 73.2969 111.681 73.2969C111.526 73.2969 111.402 73.4202 111.402 73.5743L111.681 95.062C111.712 95.2162 111.836 95.3395 111.96 95.3395Z" fill="#2D3150"/>
<path d="M107.806 95.3395C107.806 95.3395 107.837 95.3395 107.806 95.3395C107.961 95.3395 108.085 95.2162 108.085 95.062L107.248 73.5743C107.248 73.4202 107.093 73.2969 106.969 73.2969C106.813 73.2969 106.689 73.4202 106.689 73.5743L107.527 95.062C107.558 95.2162 107.682 95.3395 107.806 95.3395Z" fill="#2D3150"/>
<path d="M103.931 95.3395C103.931 95.3395 103.962 95.3395 103.931 95.3395C104.117 95.3087 104.21 95.1854 104.21 95.0312L101.978 73.5435C101.947 73.3894 101.823 73.2969 101.668 73.2969C101.513 73.3277 101.42 73.451 101.42 73.6052L103.652 95.0929C103.683 95.247 103.807 95.3395 103.931 95.3395Z" fill="#2D3150"/>
<path d="M98.3806 84.3342H134.967C135.122 84.3342 135.246 84.2109 135.246 84.0568C135.246 83.9026 135.122 83.7793 134.967 83.7793H98.3806C98.2256 83.7793 98.1016 83.9026 98.1016 84.0568C98.1016 84.2109 98.2256 84.3342 98.3806 84.3342Z" fill="#2D3150"/>
<path d="M117.078 65.0317C117.233 64.7543 117.513 64.446 117.823 64.2918C117.885 64.261 117.885 64.1685 117.823 64.1377C117.544 63.9836 117.233 63.7061 117.078 63.3978C117.047 63.3361 116.954 63.3361 116.923 63.3978C116.768 63.6753 116.489 63.9836 116.179 64.1377C116.117 64.1685 116.117 64.261 116.179 64.2918C116.458 64.446 116.768 64.7234 116.923 65.0317C116.923 65.0934 117.047 65.0934 117.078 65.0317Z" fill="#F7C2C1"/>
<path d="M123.528 62.3188C123.683 62.0414 123.962 61.7331 124.272 61.5789C124.334 61.5481 124.334 61.4556 124.272 61.4248C123.993 61.2707 123.683 60.9932 123.528 60.6849C123.497 60.6233 123.404 60.6233 123.373 60.6849C123.218 60.9624 122.939 61.2707 122.629 61.4248C122.567 61.4556 122.567 61.5481 122.629 61.5789C122.908 61.7331 123.218 62.0106 123.373 62.3188C123.404 62.3805 123.497 62.3805 123.528 62.3188Z" fill="#F7C2C1"/>
<path d="M121.171 75.2346C121.388 74.8339 121.822 74.4023 122.225 74.1864C122.318 74.1248 122.318 74.0015 122.225 73.9398C121.822 73.724 121.388 73.2924 121.171 72.8916C121.109 72.7991 120.985 72.7991 120.923 72.8916C120.706 73.2924 120.272 73.724 119.869 73.9398C119.776 74.0015 119.776 74.1248 119.869 74.1864C120.272 74.4023 120.706 74.8339 120.923 75.2346C120.985 75.3579 121.14 75.3579 121.171 75.2346Z" fill="#F7C2C1"/>
<path d="M122.969 65.4032C123.031 65.2799 123.186 65.1258 123.31 65.0641C123.341 65.0333 123.341 65.0024 123.31 64.9716C123.186 64.91 123.031 64.7558 122.969 64.6325C122.938 64.6017 122.907 64.6017 122.876 64.6325C122.814 64.7558 122.659 64.91 122.535 64.9716C122.504 65.0024 122.504 65.0333 122.535 65.0641C122.659 65.1258 122.814 65.2799 122.876 65.4032C122.907 65.434 122.938 65.434 122.969 65.4032Z" fill="#F7C2C1"/>
<path d="M113.389 71.4735C113.451 71.3502 113.606 71.1961 113.73 71.1344C113.761 71.1036 113.761 71.0728 113.73 71.0419C113.606 70.9803 113.451 70.8261 113.389 70.7028C113.358 70.672 113.327 70.672 113.296 70.7028C113.234 70.8261 113.079 70.9803 112.955 71.0419C112.924 71.0728 112.924 71.1036 112.955 71.1344C113.079 71.1961 113.234 71.3502 113.296 71.4735C113.327 71.5044 113.358 71.5044 113.389 71.4735Z" fill="#F7C2C1"/>
<path d="M109.699 67.8681C109.762 67.7447 109.917 67.5906 110.041 67.5289C110.072 67.4981 110.072 67.4673 110.041 67.4365C109.917 67.3748 109.762 67.2207 109.699 67.0973C109.668 67.0665 109.637 67.0665 109.606 67.0973C109.544 67.2207 109.389 67.3748 109.265 67.4365C109.234 67.4673 109.234 67.4981 109.265 67.5289C109.389 67.5906 109.544 67.7447 109.606 67.8681C109.637 67.8989 109.699 67.8989 109.699 67.8681Z" fill="#F7C2C1"/>
<path d="M112.614 63.1807C112.335 63.0265 112.025 62.7491 111.869 62.4408C111.838 62.3791 111.745 62.3791 111.714 62.4408C111.559 62.7182 111.28 63.0265 110.97 63.1807C110.908 63.2115 110.908 63.304 110.97 63.3348C111.249 63.4889 111.559 63.7664 111.714 64.0747C111.745 64.1363 111.838 64.1363 111.869 64.0747C112.025 63.7972 112.304 63.4889 112.614 63.3348C112.707 63.304 112.707 63.2115 112.614 63.1807Z" fill="#F7C2C1"/>
<path d="M117.203 60.0693C116.924 59.9152 116.614 59.6377 116.459 59.3294C116.428 59.2678 116.335 59.2678 116.304 59.3294C116.149 59.6069 115.87 59.9152 115.56 60.0693C115.498 60.1002 115.498 60.1927 115.56 60.2235C115.839 60.3776 116.149 60.6551 116.304 60.9634C116.335 61.025 116.428 61.025 116.459 60.9634C116.614 60.6859 116.893 60.3776 117.203 60.2235C117.296 60.1927 117.296 60.1002 117.203 60.0693Z" fill="#F7C2C1"/>
<path d="M128.893 61.2412C128.614 61.0871 128.304 60.8096 128.149 60.5013C128.118 60.4397 128.025 60.4397 127.994 60.5013C127.839 60.7788 127.56 61.0871 127.25 61.2412C127.188 61.2721 127.188 61.3645 127.25 61.3954C127.529 61.5495 127.839 61.827 127.994 62.1353C128.025 62.1969 128.118 62.1969 128.149 62.1353C128.304 61.8578 128.583 61.5495 128.893 61.3954C128.955 61.3645 128.955 61.2721 128.893 61.2412Z" fill="#F7C2C1"/>
<path d="M119.623 66.4169C119.499 66.3553 119.344 66.2011 119.282 66.0778C119.251 66.047 119.22 66.047 119.189 66.0778C119.127 66.2011 118.971 66.3553 118.847 66.4169C118.816 66.4478 118.816 66.4786 118.847 66.5094C118.971 66.5711 119.127 66.7252 119.189 66.8485C119.22 66.8794 119.251 66.8794 119.282 66.8485C119.344 66.7252 119.499 66.5711 119.623 66.5094C119.654 66.4786 119.654 66.4478 119.623 66.4169Z" fill="#F7C2C1"/>
<path d="M114.474 68.0497C114.35 67.9881 114.195 67.8339 114.133 67.7106C114.102 67.6798 114.071 67.6798 114.04 67.7106C113.978 67.8339 113.823 67.9881 113.699 68.0497C113.668 68.0806 113.668 68.1114 113.699 68.1422C113.823 68.2039 113.978 68.358 114.04 68.4813C114.071 68.5122 114.102 68.5122 114.133 68.4813C114.195 68.358 114.35 68.2039 114.474 68.1422C114.505 68.1114 114.505 68.0806 114.474 68.0497Z" fill="#F7C2C1"/>
<path d="M114.474 61.9482C114.35 61.8865 114.195 61.7324 114.133 61.6091C114.102 61.5782 114.071 61.5782 114.04 61.6091C113.978 61.7324 113.823 61.8865 113.699 61.9482C113.668 61.979 113.668 62.0098 113.699 62.0407C113.823 62.1023 113.978 62.2565 114.04 62.3798C114.071 62.4106 114.102 62.4106 114.133 62.3798C114.195 62.2565 114.35 62.1023 114.474 62.0407C114.505 62.0098 114.505 61.9482 114.474 61.9482Z" fill="#F7C2C1"/>
<path d="M115.746 56.3349C115.622 56.2732 115.467 56.1191 115.405 55.9958C115.374 55.9649 115.343 55.9649 115.312 55.9958C115.25 56.1191 115.095 56.2732 114.971 56.3349C114.94 56.3657 114.94 56.3965 114.971 56.4274C115.095 56.489 115.25 56.6432 115.312 56.7665C115.343 56.7973 115.374 56.7973 115.405 56.7665C115.467 56.6432 115.622 56.489 115.746 56.4274C115.777 56.3965 115.777 56.3349 115.746 56.3349Z" fill="#F7C2C1"/>
<path d="M112.181 54.4872C112.057 54.4256 111.902 54.2714 111.84 54.1481C111.809 54.1173 111.778 54.1173 111.747 54.1481C111.685 54.2714 111.53 54.4256 111.406 54.4872C111.375 54.5181 111.375 54.5489 111.406 54.5797C111.53 54.6414 111.685 54.7955 111.747 54.9188C111.778 54.9496 111.809 54.9496 111.84 54.9188C111.902 54.7955 112.057 54.6414 112.181 54.5797C112.212 54.5489 112.212 54.5181 112.181 54.4872Z" fill="#F7C2C1"/>
<path d="M126.568 63.5517C126.444 63.49 126.289 63.3359 126.227 63.2126C126.196 63.1817 126.165 63.1817 126.134 63.2126C126.072 63.3359 125.917 63.49 125.793 63.5517C125.762 63.5825 125.762 63.6134 125.793 63.6442C125.917 63.7058 126.072 63.86 126.134 63.9833C126.165 64.0141 126.196 64.0141 126.227 63.9833C126.289 63.86 126.444 63.7058 126.568 63.6442C126.599 63.6134 126.599 63.5825 126.568 63.5517Z" fill="#F7C2C1"/>
<path d="M124.676 68.667C124.397 68.5129 124.087 68.2354 123.932 67.9271C123.901 67.8654 123.808 67.8654 123.777 67.9271C123.622 68.2046 123.343 68.5129 123.033 68.667C122.971 68.6978 122.971 68.7903 123.033 68.8211C123.312 68.9753 123.622 69.2527 123.777 69.561C123.808 69.6227 123.901 69.6227 123.932 69.561C124.087 69.2836 124.366 68.9753 124.676 68.8211C124.738 68.7903 124.738 68.6978 124.676 68.667Z" fill="#F7C2C1"/>
<path d="M118.66 70.4854C118.381 70.3312 118.071 70.0538 117.916 69.7455C117.885 69.6838 117.792 69.6838 117.761 69.7455C117.606 70.0229 117.327 70.3312 117.017 70.4854C116.955 70.5162 116.955 70.6087 117.017 70.6395C117.296 70.7936 117.606 71.0711 117.761 71.3794C117.792 71.4411 117.885 71.4411 117.916 71.3794C118.071 71.1019 118.35 70.7936 118.66 70.6395C118.753 70.6087 118.753 70.5162 118.66 70.4854Z" fill="#F7C2C1"/>
<path d="M109.266 71.9053C108.987 71.7511 108.677 71.4737 108.522 71.1654C108.491 71.1037 108.398 71.1037 108.367 71.1654C108.212 71.4428 107.933 71.7511 107.623 71.9053C107.561 71.9361 107.561 72.0286 107.623 72.0594C107.902 72.2136 108.212 72.491 108.367 72.7993C108.398 72.861 108.491 72.861 108.522 72.7993C108.677 72.5219 108.956 72.2136 109.266 72.0594C109.328 72.0286 109.328 71.9361 109.266 71.9053Z" fill="#F7C2C1"/>
<path d="M127.125 71.3505C127 71.2889 126.845 71.1347 126.783 71.0114C126.752 70.9806 126.721 70.9806 126.69 71.0114C126.628 71.1347 126.473 71.2889 126.349 71.3505C126.318 71.3813 126.318 71.4122 126.349 71.443C126.473 71.5047 126.628 71.6588 126.69 71.7821C126.721 71.8129 126.752 71.8129 126.783 71.7821C126.845 71.6588 127 71.5047 127.125 71.443C127.156 71.4122 127.156 71.3813 127.125 71.3505Z" fill="#F7C2C1"/>
<path d="M126.505 67.4384C126.381 67.3767 126.226 67.2226 126.164 67.0993C126.133 67.0685 126.102 67.0685 126.071 67.0993C126.009 67.2226 125.854 67.3767 125.73 67.4384C125.699 67.4692 125.699 67.5001 125.73 67.5309C125.854 67.5925 126.009 67.7467 126.071 67.87C126.102 67.9008 126.133 67.9008 126.164 67.87C126.226 67.7467 126.381 67.5925 126.505 67.5309C126.536 67.5001 126.536 67.4692 126.505 67.4384Z" fill="#F7C2C1"/>
<path d="M120.583 56.7122H121.575V57.298H120.583V58.4387H119.963V57.298H118.939V56.7122H119.963V55.6641H120.583V56.7122Z" fill="#F4AEAD"/>
<path d="M123.808 58.8067H123.157V55.7238L122.227 56.0321V55.508L123.715 54.9531H123.808V58.8067Z" fill="#EF8785"/>
<path d="M127.621 57.2036C127.621 57.7585 127.528 58.1593 127.311 58.4368C127.094 58.7142 126.784 58.8684 126.381 58.8684C125.978 58.8684 125.668 58.7451 125.451 58.4676C125.234 58.1902 125.141 57.7894 125.141 57.2653V56.5871C125.141 56.0321 125.234 55.6314 125.451 55.3539C125.668 55.0764 125.978 54.9531 126.412 54.9531C126.846 54.9531 127.156 55.0764 127.342 55.3539C127.528 55.6314 127.652 56.0321 127.652 56.5562V57.2036H127.621ZM127.001 56.4946C127.001 56.1246 126.939 55.878 126.846 55.693C126.753 55.508 126.598 55.4464 126.381 55.4464C126.164 55.4464 126.009 55.5389 125.916 55.693C125.823 55.8472 125.761 56.0938 125.761 56.4329V57.2961C125.761 57.6661 125.823 57.9127 125.916 58.0977C126.009 58.2826 126.164 58.3751 126.381 58.3751C126.598 58.3751 126.753 58.2826 126.846 58.1285C126.939 57.9743 127.001 57.7277 127.001 57.3578V56.4946Z" fill="#EF8785"/>
<path d="M130.691 57.2036C130.691 57.7585 130.598 58.1593 130.381 58.4368C130.164 58.7142 129.854 58.8684 129.451 58.8684C129.048 58.8684 128.738 58.7451 128.521 58.4676C128.304 58.1902 128.211 57.7894 128.211 57.2653V56.5871C128.211 56.0321 128.304 55.6314 128.521 55.3539C128.738 55.0764 129.048 54.9531 129.482 54.9531C129.916 54.9531 130.226 55.0764 130.412 55.3539C130.629 55.6314 130.722 56.0321 130.722 56.5562V57.2036H130.691ZM130.071 56.4946C130.071 56.1246 130.009 55.878 129.916 55.693C129.823 55.508 129.668 55.4464 129.451 55.4464C129.234 55.4464 129.079 55.5389 128.986 55.693C128.893 55.8472 128.831 56.0938 128.831 56.4329V57.2961C128.831 57.6661 128.893 57.9127 128.986 58.0977C129.079 58.2826 129.234 58.3751 129.451 58.3751C129.668 58.3751 129.823 58.2826 129.916 58.1285C130.009 57.9743 130.071 57.7277 130.071 57.3578V56.4946Z" fill="#EF8785"/>
<path d="M113.668 49.6527H114.877V50.3617H113.668V51.7182H112.924V50.3617H111.715V49.6527H112.924V48.3887H113.668V49.6527Z" fill="#ED7471"/>
<path d="M120.149 52.1805H117.048V51.6565L118.598 49.9917C118.815 49.7451 118.97 49.5293 119.063 49.3751C119.156 49.221 119.218 49.036 119.218 48.8819C119.218 48.6661 119.156 48.4811 119.032 48.3578C118.908 48.2345 118.753 48.142 118.536 48.142C118.288 48.142 118.102 48.2036 117.947 48.3578C117.823 48.5119 117.73 48.7277 117.73 48.9743H116.955C116.955 48.6969 117.017 48.4503 117.141 48.2345C117.265 48.0186 117.451 47.8337 117.699 47.7104C117.947 47.587 118.195 47.5254 118.505 47.5254C118.939 47.5254 119.312 47.6487 119.56 47.8645C119.808 48.0803 119.963 48.3886 119.963 48.7894C119.963 49.0052 119.901 49.2518 119.777 49.4984C119.653 49.7451 119.436 50.0225 119.125 50.3616L118.009 51.564H120.149V52.1805Z" fill="#ED7471"/>
<path d="M123.746 50.2383C123.746 50.8857 123.622 51.379 123.374 51.7181C123.125 52.0572 122.753 52.2114 122.226 52.2114C121.73 52.2114 121.358 52.0572 121.11 51.7181C120.862 51.379 120.738 50.9166 120.707 50.2692V49.4984C120.707 48.851 120.831 48.3578 121.079 48.0186C121.327 47.6795 121.699 47.5254 122.226 47.5254C122.722 47.5254 123.094 47.6795 123.343 48.0186C123.591 48.3578 123.715 48.8202 123.715 49.4676V50.2383H123.746ZM122.97 49.4059C122.97 48.9743 122.908 48.6661 122.784 48.4503C122.66 48.2345 122.474 48.142 122.226 48.142C121.978 48.142 121.792 48.2345 121.668 48.4194C121.544 48.6044 121.482 48.9127 121.482 49.3135V50.3616C121.482 50.7932 121.544 51.1015 121.668 51.3173C121.792 51.5331 121.978 51.6256 122.226 51.6256C122.474 51.6256 122.66 51.5331 122.784 51.3482C122.908 51.1632 122.97 50.8549 122.97 50.4233V49.4059Z" fill="#ED7471"/>
<path d="M127.435 50.2383C127.435 50.8857 127.311 51.379 127.063 51.7181C126.815 52.0572 126.443 52.2114 125.916 52.2114C125.42 52.2114 125.048 52.0572 124.8 51.7181C124.552 51.379 124.427 50.9166 124.396 50.2692V49.4984C124.396 48.851 124.521 48.3578 124.769 48.0186C125.017 47.6795 125.389 47.5254 125.916 47.5254C126.412 47.5254 126.784 47.6795 127.032 48.0186C127.28 48.3578 127.404 48.8202 127.404 49.4676V50.2383H127.435ZM126.66 49.4059C126.66 48.9743 126.598 48.6661 126.474 48.4503C126.35 48.2345 126.164 48.142 125.916 48.142C125.668 48.142 125.482 48.2345 125.358 48.4194C125.234 48.6044 125.172 48.9127 125.172 49.3135V50.3616C125.172 50.7932 125.234 51.1015 125.358 51.3173C125.482 51.5331 125.668 51.6256 125.916 51.6256C126.164 51.6256 126.35 51.5331 126.474 51.3482C126.598 51.1632 126.66 50.8549 126.66 50.4233V49.4059Z" fill="#ED7471"/>
<path d="M107.808 41.638H109.203V42.4395H107.808V44.0426H106.94V42.4395H105.514V41.638H106.94V40.1582H107.808V41.638Z" fill="#EA605D"/>
<path d="M112.8 41.5133H113.358C113.637 41.5133 113.854 41.4517 114.009 41.2975C114.164 41.1434 114.257 40.9584 114.257 40.681C114.257 40.4343 114.195 40.2185 114.071 40.0952C113.947 39.9411 113.73 39.8794 113.451 39.8794C113.203 39.8794 113.017 39.9411 112.862 40.0952C112.707 40.2185 112.614 40.4035 112.614 40.6501H111.715C111.715 40.3727 111.777 40.126 111.932 39.9102C112.087 39.6944 112.273 39.5095 112.552 39.3861C112.8 39.2628 113.11 39.2012 113.42 39.2012C113.947 39.2012 114.381 39.3245 114.691 39.6019C115.001 39.8794 115.156 40.2494 115.156 40.7118C115.156 40.9584 115.094 41.1742 114.939 41.39C114.784 41.6058 114.598 41.76 114.35 41.8833C114.66 41.9758 114.877 42.1299 115.032 42.3457C115.187 42.5615 115.249 42.8081 115.249 43.1164C115.249 43.6097 115.094 43.9796 114.753 44.2571C114.412 44.5346 113.978 44.6887 113.451 44.6887C112.924 44.6887 112.521 44.5654 112.18 44.2879C111.839 44.0105 111.684 43.6405 111.684 43.2089H112.583C112.583 43.4556 112.676 43.6405 112.831 43.7947C112.986 43.9488 113.203 44.0105 113.482 44.0105C113.761 44.0105 113.978 43.9488 114.133 43.7947C114.288 43.6405 114.381 43.4247 114.381 43.1473C114.381 42.8698 114.288 42.654 114.133 42.4999C113.978 42.3457 113.73 42.2841 113.389 42.2841H112.862V41.5133H112.8Z" fill="#EA605D"/>
<path d="M119.589 42.3468C119.589 43.1175 119.434 43.7033 119.155 44.0732C118.876 44.474 118.411 44.659 117.822 44.659C117.233 44.659 116.799 44.474 116.52 44.0732C116.241 43.7033 116.086 43.1175 116.055 42.3777V41.4528C116.055 40.6821 116.21 40.0963 116.489 39.7264C116.768 39.3564 117.233 39.1406 117.822 39.1406C118.411 39.1406 118.845 39.3256 119.124 39.6955C119.403 40.0655 119.558 40.6204 119.558 41.3911V42.3468H119.589ZM118.69 41.3295C118.69 40.8362 118.628 40.4663 118.473 40.2196C118.349 39.973 118.101 39.8805 117.822 39.8805C117.543 39.8805 117.326 40.0038 117.171 40.2196C117.047 40.4354 116.954 40.7746 116.954 41.2678V42.4701C116.954 42.9634 117.016 43.3333 117.171 43.58C117.326 43.8266 117.543 43.9499 117.822 43.9499C118.101 43.9499 118.318 43.8266 118.473 43.6108C118.597 43.395 118.69 43.0251 118.69 42.5626V41.3295Z" fill="#EA605D"/>
<path d="M123.869 42.3468C123.869 43.1175 123.714 43.7033 123.435 44.0732C123.155 44.474 122.69 44.659 122.101 44.659C121.512 44.659 121.078 44.474 120.799 44.0732C120.52 43.7033 120.365 43.1175 120.334 42.3777V41.4528C120.334 40.6821 120.489 40.0963 120.768 39.7264C121.047 39.3564 121.512 39.1406 122.101 39.1406C122.69 39.1406 123.124 39.3256 123.404 39.6955C123.683 40.0655 123.838 40.6204 123.838 41.3911V42.3468H123.869ZM122.969 41.3295C122.969 40.8362 122.907 40.4663 122.752 40.2196C122.628 39.973 122.38 39.8805 122.101 39.8805C121.822 39.8805 121.605 40.0038 121.45 40.2196C121.326 40.4354 121.233 40.7746 121.233 41.2678V42.4701C121.233 42.9634 121.295 43.3333 121.45 43.58C121.605 43.8266 121.822 43.9499 122.101 43.9499C122.38 43.9499 122.597 43.8266 122.752 43.6108C122.876 43.395 122.969 43.0251 122.969 42.5626V41.3295Z" fill="#EA605D"/>
<g opacity="0.9">
<path opacity="0.9" d="M101.669 33.6233H103.281V34.5482H101.669V36.3671H100.677V34.5482H99.0645V33.6233H100.677V31.9277H101.669V33.6233Z" fill="#E84D49"/>
<path opacity="0.9" d="M109.699 34.7922H110.474V35.6246H109.699V36.9811H108.676V35.6246H106.01L105.979 35.008L108.614 30.877H109.668V34.7922H109.699ZM107.064 34.7922H108.676V32.2334L108.614 32.3567L107.064 34.7922Z" fill="#E84D49"/>
<path opacity="0.9" d="M115.124 34.4234C115.124 35.2866 114.969 35.9648 114.628 36.3964C114.287 36.8281 113.791 37.0747 113.109 37.0747C112.458 37.0747 111.931 36.8589 111.621 36.4273C111.28 35.9957 111.125 35.3483 111.094 34.4851V33.4369C111.094 32.5737 111.249 31.8954 111.59 31.4638C111.931 31.0322 112.427 30.8164 113.109 30.8164C113.791 30.8164 114.287 31.0322 114.628 31.4638C114.969 31.8954 115.124 32.5428 115.124 33.3752V34.4234ZM114.101 33.2827C114.101 32.697 114.008 32.2962 113.853 32.0187C113.698 31.7413 113.45 31.618 113.109 31.618C112.768 31.618 112.52 31.7413 112.365 31.9879C112.21 32.2345 112.117 32.6353 112.117 33.1594V34.5467C112.117 35.1325 112.21 35.5332 112.365 35.8107C112.52 36.0882 112.768 36.2423 113.109 36.2423C113.45 36.2423 113.667 36.119 113.853 35.8415C114.008 35.5949 114.101 35.1633 114.101 34.6392V33.2827Z" fill="#E84D49"/>
<path opacity="0.9" d="M120.056 34.4234C120.056 35.2866 119.901 35.9648 119.56 36.3964C119.219 36.8281 118.723 37.0747 118.041 37.0747C117.39 37.0747 116.863 36.8589 116.552 36.4273C116.211 35.9957 116.056 35.3483 116.025 34.4851V33.4369C116.025 32.5737 116.18 31.8954 116.521 31.4638C116.863 31.0322 117.359 30.8164 118.041 30.8164C118.723 30.8164 119.219 31.0322 119.56 31.4638C119.901 31.8954 120.056 32.5428 120.056 33.3752V34.4234ZM119.033 33.2827C119.033 32.697 118.94 32.2962 118.785 32.0187C118.63 31.7413 118.382 31.618 118.041 31.618C117.7 31.618 117.452 31.7413 117.297 31.9879C117.142 32.2345 117.049 32.6353 117.049 33.1594V34.5467C117.049 35.1325 117.142 35.5332 117.297 35.8107C117.452 36.0882 117.7 36.2423 118.041 36.2423C118.382 36.2423 118.599 36.119 118.785 35.8415C118.94 35.5949 119.033 35.1633 119.033 34.6392V33.2827Z" fill="#E84D49"/>
</g>
<path d="M106.785 24.0676H108.583V25.1158H106.785V27.1505H105.638V25.1158H103.809V24.0676H105.638V22.1562H106.754V24.0676H106.785Z" fill="#E53935"/>
<path d="M112.18 24.4372L112.552 20.9844H116.273V21.9709H113.513L113.327 23.6048C113.637 23.4199 114.009 23.3274 114.412 23.3274C115.063 23.3274 115.591 23.5432 115.963 23.9439C116.335 24.3756 116.521 24.9305 116.521 25.6395C116.521 26.3486 116.304 26.9035 115.901 27.3043C115.498 27.7051 114.939 27.9209 114.226 27.9209C113.606 27.9209 113.079 27.7359 112.645 27.3968C112.211 27.0577 111.994 26.5644 111.963 25.9786H113.079C113.11 26.3178 113.234 26.5644 113.451 26.7494C113.637 26.9343 113.916 27.0268 114.226 27.0268C114.567 27.0268 114.846 26.9035 115.063 26.6569C115.249 26.4103 115.373 26.0711 115.373 25.6395C115.373 25.2079 115.249 24.8996 115.032 24.653C114.815 24.4064 114.505 24.2831 114.133 24.2831C113.916 24.2831 113.761 24.3139 113.606 24.3755C113.451 24.4372 113.296 24.5297 113.141 24.6838L112.18 24.4372Z" fill="#E53935"/>
<path d="M121.915 24.9596C121.915 25.9461 121.729 26.686 121.357 27.2101C120.985 27.7034 120.427 27.95 119.652 27.95C118.908 27.95 118.35 27.7034 117.978 27.2101C117.606 26.7169 117.42 26.0078 117.389 25.0213V23.8189C117.389 22.8324 117.575 22.0925 117.947 21.5993C118.319 21.106 118.877 20.8594 119.652 20.8594C120.396 20.8594 120.985 21.106 121.357 21.5684C121.729 22.0617 121.915 22.7708 121.915 23.7265V24.9596ZM120.737 23.6648C120.737 23.0174 120.644 22.555 120.458 22.2467C120.272 21.9384 119.993 21.7842 119.621 21.7842C119.249 21.7842 118.97 21.9384 118.784 22.2158C118.598 22.4933 118.505 22.9557 118.505 23.5415V25.1138C118.505 25.7612 118.598 26.2236 118.784 26.5627C118.97 26.871 119.249 27.0252 119.621 27.0252C119.993 27.0252 120.272 26.871 120.427 26.5935C120.613 26.3161 120.706 25.8537 120.706 25.2371V23.6648H120.737Z" fill="#E53935"/>
<path d="M127.435 24.9596C127.435 25.9461 127.249 26.686 126.877 27.2101C126.505 27.7034 125.947 27.95 125.172 27.95C124.427 27.95 123.869 27.7034 123.497 27.2101C123.125 26.7169 122.939 26.0078 122.908 25.0213V23.8189C122.908 22.8324 123.094 22.0925 123.466 21.5993C123.838 21.106 124.396 20.8594 125.172 20.8594C125.916 20.8594 126.505 21.106 126.877 21.5684C127.249 22.0617 127.435 22.7708 127.435 23.7265V24.9596ZM126.288 23.6648C126.288 23.0174 126.195 22.555 126.009 22.2467C125.823 21.9384 125.544 21.7842 125.172 21.7842C124.8 21.7842 124.52 21.9384 124.334 22.2158C124.148 22.4933 124.055 22.9557 124.055 23.5415V25.1138C124.055 25.7612 124.148 26.2236 124.334 26.5627C124.52 26.871 124.8 27.0252 125.172 27.0252C125.544 27.0252 125.823 26.871 125.978 26.5935C126.164 26.3161 126.257 25.8537 126.257 25.2371V23.6648H126.288Z" fill="#E53935"/>
<path d="M83.281 86.0877L58.7246 86.1504L58.7911 111.892L83.3474 111.83L83.281 86.0877Z" fill="url(#paint16_linear)"/>
<path d="M64.4911 86.1403L55.9336 86.1621L56.0001 111.904L64.5577 111.882L64.4911 86.1403Z" fill="url(#paint17_linear)"/>
<path d="M82.9103 31.9851H62.5087C59.4392 31.9851 56.9277 29.488 56.9277 26.4359C56.9277 23.3839 59.4392 20.8867 62.5087 20.8867H82.9103C85.9798 20.8867 88.4913 23.3839 88.4913 26.4359C88.4913 29.5188 86.0109 31.9851 82.9103 31.9851Z" fill="url(#paint18_linear)"/>
<path d="M62.725 21.8145C60.1516 21.8145 58.0742 23.88 58.0742 26.4388C58.0742 28.9976 60.1516 31.0631 62.725 31.0631C65.2985 31.0631 67.3759 28.9976 67.3759 26.4388C67.3759 23.88 65.2985 21.8145 62.725 21.8145ZM62.725 30.2924C60.5857 30.2924 58.8494 28.566 58.8494 26.4388C58.8494 24.3116 60.5857 22.5852 62.725 22.5852C64.8644 22.5852 66.6007 24.3116 66.6007 26.4388C66.6007 28.566 64.8644 30.2924 62.725 30.2924Z" fill="#FF5753"/>
<path d="M62.7255 23.3555C61.0202 23.3555 59.625 24.7428 59.625 26.4384C59.625 28.1339 61.0202 29.5212 62.7255 29.5212C64.4308 29.5212 65.8261 28.1339 65.8261 26.4384C65.8261 24.7428 64.4619 23.3555 62.7255 23.3555ZM63.1286 28.3806H62.3535L60.8032 24.9277H61.5783L62.7566 27.5174L63.9348 24.9277H64.7099L63.1286 28.3806Z" fill="#FF5753"/>
<path d="M127.504 95.3359H96.8086V113.525H127.504V95.3359Z" fill="url(#paint19_linear)"/>
<path d="M121.613 95.3359H96.8086V113.525H121.613V95.3359Z" fill="url(#paint20_linear)"/>
<rect x="106.211" y="97.4336" width="6" height="1.98" rx="0.989998" fill="url(#paint21_linear)" fill-opacity="0.5"/>
<path d="M167.424 92.875H124.713V113.53H167.424V92.875Z" fill="url(#paint22_linear)"/>
<path d="M167.424 92.875H124.713V99.8112H167.424V92.875Z" fill="url(#paint23_linear)"/>
<rect x="143.068" y="95.3535" width="6.00002" height="1.98" rx="0.989998" fill="url(#paint24_linear)" fill-opacity="0.5"/>
<path d="M181.762 111.03H165.422L167.716 89.9434H184.025L181.762 111.03Z" fill="url(#paint25_linear)"/>
<rect x="171.723" y="93.5625" width="5.99998" height="1.98" rx="0.989998" fill="url(#paint26_linear)" fill-opacity="0.5"/>
<path d="M188.273 89.9434H184.025L181.762 111.03H190.536L188.273 89.9434Z" fill="url(#paint27_linear)"/>
<path d="M96.8078 94.1035H72.9336V112.293H96.8078V94.1035Z" fill="url(#paint28_linear)"/>
<path d="M91.485 94.1035H72.9336V112.293H91.485V94.1035Z" fill="url(#paint29_linear)"/>
<rect x="79.209" y="97.502" width="5.99999" height="1.98" rx="0.989998" fill="url(#paint30_linear)" fill-opacity="0.5"/>
<path d="M158.191 41.8841C158.191 41.8841 152.145 41.6067 149.106 42.7782C146.657 43.7647 148.021 46.231 150.191 45.9844C152.362 45.7686 156.888 43.7647 158.408 42.4391C158.966 41.915 158.532 41.9458 158.191 41.8841Z" fill="url(#paint31_linear)"/>
<path d="M176.638 45.7972C175.367 47.1228 174.685 47.1536 174.995 48.8184C175.336 51.778 169.848 53.6585 164.887 52.7953C159.926 51.9321 157.198 49.2808 156.454 46.722C155.709 44.1941 158.035 42.3443 158.035 42.3443C158.035 42.3443 157.942 42.221 157.818 42.0669C157.353 41.4195 156.392 39.7547 157.601 38.4599C159.678 36.2094 163.461 39.5697 165.569 41.0187C165.662 41.0803 165.755 41.142 165.848 41.2037C167.895 42.5293 170.964 40.9262 174.065 39.7855C177.165 38.6449 176.669 40.8337 176.235 41.2037C175.801 41.5736 174.437 42.7759 175.739 42.9917C176.979 43.2075 177.909 44.4715 176.638 45.7972Z" fill="#071C2A"/>
<path d="M169.724 45.4886L171.274 45.1495C171.398 45.1186 171.491 45.0262 171.491 44.872V39.7236C171.491 39.5386 171.336 39.4153 171.15 39.4461L169.6 39.7852C169.476 39.8161 169.383 39.9086 169.383 40.0627V45.2111C169.383 45.3961 169.569 45.5194 169.724 45.4886Z" fill="black"/>
<path d="M158.066 86.4277L154.563 99.2526L151.338 111.06C151.183 111.646 150.625 112.047 150.036 112.047C149.943 112.047 149.819 112.047 149.695 112.016C149.013 111.862 148.579 111.214 148.703 110.536L150.439 99.1909L152.268 87.1985L158.066 86.4277Z" fill="url(#paint32_linear)"/>
<path d="M166.655 83.1934L165.508 102.801L165.074 110.199C165.043 110.508 164.919 110.816 164.702 111.001C164.485 111.217 164.206 111.34 163.896 111.34C163.245 111.371 162.687 110.847 162.625 110.199L162.129 102.739L160.857 83.7483L166.655 83.1934Z" fill="url(#paint33_linear)"/>
<path d="M154.78 65.1591C154.78 65.1591 153.353 70.3075 152.795 75.0552C152.113 79.0629 149.106 82.6391 150.47 85.9686C151.834 89.2981 158.438 88.7432 159.865 86.2461C161.291 83.7489 165.446 84.7663 166.531 85.5062C167.616 86.2461 172.67 85.2904 170.468 79.6795C168.298 74.0687 167.461 72.1573 167.616 69.0436C167.771 65.9298 166.655 64.5117 166.655 64.5117C165.88 65.1591 159.741 66.3306 154.78 65.1591Z" fill="url(#paint34_linear)"/>
<path d="M154.563 99.257L151.338 111.064C151.183 111.65 150.625 112.051 150.036 112.051C149.943 112.051 149.819 112.051 149.695 112.02C149.013 111.866 148.579 111.219 148.703 110.54L150.439 99.1953C151.214 99.7194 152.888 100.552 154.563 99.257Z" fill="url(#paint35_linear)"/>
<path d="M165.508 102.798L165.074 110.197C165.043 110.505 164.919 110.814 164.702 110.998C164.485 111.214 164.206 111.338 163.896 111.338C163.245 111.368 162.687 110.844 162.625 110.197L162.129 102.736C162.811 103.26 164.082 103.846 165.508 102.798Z" fill="url(#paint36_linear)"/>
<path d="M156.796 48.7875C158.036 50.5447 162.036 50.2056 162.935 48.9417C160.362 48.2018 157.54 48.5717 156.703 48.7259C156.703 48.7259 156.734 48.7567 156.796 48.7875Z" fill="url(#paint37_linear)"/>
<path d="M160.95 44.4082H158.594V49.125H160.95V44.4082Z" fill="url(#paint38_linear)"/>
<path opacity="0.2" d="M160.95 44.4082H158.594V45.8572C159.183 46.6895 159.958 47.152 160.733 46.9978C160.795 46.9978 160.857 46.967 160.95 46.9362V44.4082Z" fill="#727880"/>
<path d="M160.759 46.4393C161.985 46.1967 162.678 44.4974 162.307 42.6437C161.936 40.7901 160.641 39.4841 159.415 39.7267C158.189 39.9693 157.496 41.6687 157.867 43.5223C158.238 45.376 159.533 46.6819 160.759 46.4393Z" fill="url(#paint39_linear)"/>
<path d="M164.95 42.1913C162.966 42.2221 160.764 39.54 159.927 39.6017C159.586 41.1431 158.222 41.8213 157.757 42.0063C157.292 41.3589 156.33 39.6942 157.54 38.3993C159.617 36.1488 163.4 39.5092 165.508 40.9581C165.632 41.698 165.508 42.1913 164.95 42.1913Z" fill="#071C2A"/>
<path d="M169.786 49.6837C169.786 49.6837 170.344 47.0016 170.344 46.9091C170.344 46.7858 169.91 46.1693 170.003 45.4602C170.158 43.6721 169.662 43.9187 169.724 42.8397C169.786 41.7607 170.468 41.7299 170.995 42.439C171.522 43.148 171.833 44.1654 171.615 45.3369C171.46 46.3851 171.74 50.547 171.74 50.547L169.786 49.6837Z" fill="url(#paint40_linear)"/>
<path d="M162.561 109.531L161.05 113.036C160.976 113.221 161.05 113.442 161.234 113.553L162.413 114.106L162.966 113.073C162.966 113.073 163.408 112.889 164.845 114.438C166.283 115.988 168.236 115.25 168.236 115.25C168.236 115.25 168.752 113.811 167.167 113.073C165.582 112.335 165.177 109.826 165.177 109.826L162.561 109.531Z" fill="#071C2A"/>
<path d="M151.392 110.753L152.1 114.499C152.131 114.695 152.011 114.895 151.807 114.963L150.534 115.251L150.221 114.123C150.221 114.123 149.83 113.848 148.087 115.053C146.345 116.257 144.6 115.118 144.6 115.118C144.6 115.118 144.411 113.602 146.12 113.222C147.828 112.842 148.773 110.48 148.773 110.48L151.392 110.753Z" fill="#071C2A"/>
<path d="M147.989 43.4566C147.369 44.0732 147.369 45.0289 147.927 45.6763L154.19 52.4895C155.182 54.2159 156.98 57.6996 157.197 58.3778C157.414 59.056 157.197 59.3027 156.391 60.9983C155.585 62.6939 154.562 65.1602 154.562 65.1602C154.562 65.1602 156.577 66.6708 161.042 66.3625C165.507 66.0542 167.088 64.7286 167.088 64.7286C166.623 62.8172 163.119 59.4568 163.119 59.4568C163.181 57.3913 163.864 55.0175 163.864 55.0175C165.972 57.3913 168.142 59.7343 169.631 59.7959C171.119 59.8576 172.39 56.1581 171.956 49.7766C170.716 49.7766 169.693 49.6841 169.693 49.6841C168.979 51.7496 168.297 54.5859 168.297 54.5859C166.251 51.9654 164.298 49.16 162.964 48.8825C162.065 50.1773 158.066 50.5164 156.825 48.7592C154.872 47.1561 151.833 44.659 150.19 43.3333C149.508 42.8401 148.578 42.8709 147.989 43.4566Z" fill="url(#paint41_linear)"/>
<path d="M37.6129 98.4995C37.5881 98.7472 35.9551 102.077 35.9551 102.077L28.081 98.0511C28.081 98.0511 28.9948 96.8002 31.5212 97.3631C34.0261 97.9671 34.1037 97.0175 34.1037 97.0175C34.1037 97.0175 35.3965 98.0431 36.2656 98.2792C37.0917 98.5975 37.6789 98.2729 37.6129 98.4995Z" fill="#071C2A"/>
<path d="M58.9776 105.18C59.1408 105.369 60.434 108.843 60.434 108.843L52.045 111.672C52.045 111.672 51.7674 110.152 53.9282 108.74C56.1041 107.37 55.4665 106.657 55.4665 106.657C55.4665 106.657 57.1092 106.445 57.8834 105.989C58.6878 105.62 58.8584 104.976 58.9776 105.18Z" fill="#071C2A"/>
<path d="M59.561 57.6983L58.1038 57.3592C57.9797 57.3284 57.8867 57.2359 57.8867 57.1126V52.2416C57.8867 52.0875 58.0417 51.9642 58.1968 51.995L59.654 52.3341C59.7781 52.3649 59.8711 52.4574 59.8711 52.5807V57.4517C59.8711 57.6058 59.716 57.7291 59.561 57.6983Z" fill="#071C2A"/>
<path d="M66.8164 57.8829L67.5605 61.7365L70.6611 60.6266L68.9248 55.1699L66.8164 57.8829Z" fill="url(#paint42_linear)"/>
<path d="M33.5801 95.8643C33.5801 95.8643 43.5638 83.1936 46.2613 80.3882C48.9588 77.5828 51.8113 77.9527 55.687 77.9219C59.5627 77.8911 63.5934 77.9219 63.5934 77.9219C63.5934 77.9219 69.4224 79.525 73.4841 83.7486C71.4688 88.0954 68.3992 87.5405 64.2445 86.9856C60.0898 86.4307 51.6873 85.8757 51.6873 85.8757L38.4169 99.8412C36.7736 100.119 34.1072 98.1148 33.5801 95.8643Z" fill="url(#paint43_linear)"/>
<path d="M51.6562 85.877L47.9355 89.7922L53.7956 106.841C53.7956 106.841 57.9503 107.796 59.8727 105.145C58.9735 100.552 56.8341 90.5629 55.8729 86.1852C53.5165 86.0003 51.6562 85.877 51.6562 85.877Z" fill="url(#paint44_linear)"/>
<path d="M60.2131 65.498C60.2131 65.498 55.5622 69.1359 55.0352 69.8449C55.0662 71.1089 56.0893 71.8488 56.9265 72.0954C58.9108 71.2322 62.8796 69.2592 62.8796 69.2592L60.2131 65.498Z" fill="url(#paint45_linear)"/>
<path d="M62.7251 78.1971C62.7251 78.1971 63.3762 74.3127 65.5156 71.7847C64.7404 69.7808 64.2133 68.5477 64.2133 68.5477L62.198 69.9658C62.198 69.9658 59.6555 68.9176 59.5625 65.9889C61.8569 63.8925 64.6784 62.0736 66.7558 61.1488C68.8331 60.1931 73.639 58.7441 76.4295 59.6998C78.2898 60.4089 78.7859 64.9099 79.003 66.8521C77.9798 68.0236 76.9256 68.2702 76.9256 68.2702C75.8714 76.6557 74.3831 82.3899 73.608 83.9005C72.0267 82.4823 65.1745 77.9197 62.7251 78.1971Z" fill="url(#paint46_linear)"/>
<path d="M59.4372 54.0888C59.4372 54.0888 57.8249 54.4279 57.2668 56.216C56.7087 58.0041 57.2668 57.1717 56.1196 60.6862C54.9724 64.2007 52.709 70.6439 56.2127 72.0929C58.042 72.6786 59.2822 69.9349 58.7861 65.9888C58.29 62.0427 57.949 58.6823 58.414 57.8808C58.8791 57.0792 60.9875 54.0272 59.4372 54.0888Z" fill="url(#paint47_linear)"/>
<path d="M74.6309 67.5625L76.7702 74.1291L79.8398 72.5876L78.7856 66.4219L74.6309 67.5625Z" fill="url(#paint48_linear)"/>
<path d="M67.8711 79.0606C68.4602 78.5057 71.6228 75.7003 73.6071 73.7272C75.5914 71.7542 77.6688 70.1819 79.1571 71.4151C80.8314 72.9257 79.6532 74.8371 75.8395 76.9026C72.0258 78.9989 68.6462 80.1396 68.6462 80.1396L67.8711 79.0606Z" fill="url(#paint49_linear)"/>
<path d="M74.1651 68.5816C74.1651 68.5816 77.3276 68.9515 79.188 67.1018C78.1958 62.1692 77.8857 58.9013 74.1031 59.7028C70.9715 60.4736 73.2969 66.7935 74.1651 68.5816Z" fill="url(#paint50_linear)"/>
<path d="M67.0959 59.3594C67.0959 59.3594 66.4758 60.87 66.3828 62.5039C67.53 61.6407 68.6772 60.3767 68.6772 60.3767C68.6772 60.3767 67.592 59.8835 67.0959 59.3594Z" fill="url(#paint51_linear)"/>
<path d="M69.7629 57.9141C69.7629 57.9141 69.4219 59.3938 68.6777 60.3495C70.135 60.8736 71.8403 61.0278 72.0573 61.0278C71.6543 59.8255 69.7629 57.9141 69.7629 57.9141Z" fill="url(#paint52_linear)"/>
<path opacity="0.2" d="M69.2971 56.3091L68.956 55.1992L66.8477 57.9121L66.9717 58.6212C67.0027 58.6212 67.0027 58.6212 67.0337 58.6212C68.0259 58.5904 68.894 57.6655 69.2971 56.3091Z" fill="#727880"/>
<path d="M66.8897 58.0962C68.2768 58.0926 69.3965 56.2816 69.3907 54.0512C69.385 51.8207 68.2559 50.0154 66.8689 50.019C65.4818 50.0225 64.3621 51.8335 64.3679 54.064C64.3736 56.2944 65.5027 58.0997 66.8897 58.0962Z" fill="url(#paint53_linear)"/>
<path d="M63.748 49.4651C63.748 49.4651 63.7481 51.1298 64.8953 51.4073C65.3913 51.5306 65.1433 50.8524 65.5464 50.729C65.9494 50.6057 65.9494 51.0373 66.9106 50.9757C67.8718 50.914 68.2438 51.4381 68.3059 52.3321C68.3679 53.257 69.112 52.9179 69.267 54.4285C69.267 55.415 69.205 55.6 69.205 55.6C70.5382 54.4902 72.0885 52.6713 70.6933 51.284C69.6081 50.4208 69.05 50.4208 69.5151 49.4959C69.9801 48.571 69.4531 47.7386 68.2748 48.571C67.0966 49.4034 66.6006 49.7425 66.5695 49.0951C66.5385 48.4477 66.1045 47.8619 65.4844 49.0026C64.8332 50.1433 64.5852 49.6809 64.4922 49.3417C64.3992 48.9718 63.8101 48.7868 63.748 49.4651Z" fill="#071C2A"/>
<path d="M68.2441 53.1922C68.2441 53.1614 68.2751 52.7606 68.5852 52.4215C68.8642 52.0824 69.8564 51.9591 69.7944 52.8839C69.7014 53.8088 68.7092 54.1787 68.7092 54.1787L68.2441 53.1922Z" fill="url(#paint54_linear)"/>
<path d="M63.8398 79.2467C63.8398 79.2467 64.646 78.1985 65.5141 77.8594C66.3823 77.5202 67.5295 78.1985 68.1186 78.9384C68.7387 79.7707 68.8937 80.6031 68.0256 80.7573C67.1574 80.9114 66.7233 79.8632 66.4133 79.5241C66.1032 79.2158 65.3901 79.2775 64.956 79.5241C64.522 79.7707 63.4678 80.0174 63.8398 79.2467Z" fill="url(#paint55_linear)"/>
<defs>
<filter id="filter0_i" x="50.2305" y="15.1836" width="136.455" height="80.1859" filterUnits="userSpaceOnUse" color-interpolation-filters="sRGB">
<feFlood flood-opacity="0" result="BackgroundImageFix"/>
<feBlend mode="normal" in="SourceGraphic" in2="BackgroundImageFix" result="shape"/>
<feColorMatrix in="SourceAlpha" type="matrix" values="0 0 0 0 0 0 0 0 0 0 0 0 0 0 0 0 0 0 127 0" result="hardAlpha"/>
<feOffset/>
<feGaussianBlur stdDeviation="8"/>
<feComposite in2="hardAlpha" operator="arithmetic" k2="-1" k3="1"/>
<feColorMatrix type="matrix" values="0 0 0 0 1 0 0 0 0 0.844251 0 0 0 0 0.838021 0 0 0 0.5 0"/>
<feBlend mode="normal" in2="shape" result="effect1_innerShadow"/>
</filter>
<linearGradient id="paint0_linear" x1="54" y1="30.3743" x2="59.6684" y2="131.334" gradientUnits="userSpaceOnUse">
<stop stop-color="#F9593E"/>
<stop offset="1" stop-color="#3A32FF"/>
</linearGradient>
<linearGradient id="paint1_linear" x1="15.5221" y1="34.5228" x2="68.8109" y2="112.94" gradientUnits="userSpaceOnUse">
<stop stop-color="#F9593E"/>
<stop offset="1" stop-color="#3A32CF"/>
</linearGradient>
<linearGradient id="paint2_linear" x1="23.0561" y1="60.0048" x2="56.4535" y2="128.377" gradientUnits="userSpaceOnUse">
<stop stop-color="#F9593E"/>
<stop offset="1" stop-color="#3A32FF"/>
</linearGradient>
<linearGradient id="paint3_linear" x1="-2.49454" y1="74.1484" x2="57.1811" y2="113.075" gradientUnits="userSpaceOnUse">
<stop stop-color="#F9593E"/>
<stop offset="1" stop-color="#3A32CF"/>
</linearGradient>
<linearGradient id="paint4_linear" x1="165.012" y1="6.63518" x2="194.146" y2="98.9189" gradientUnits="userSpaceOnUse">
<stop stop-color="#F9593E"/>
<stop offset="1" stop-color="#3A32C5"/>
</linearGradient>
<linearGradient id="paint5_linear" x1="189.065" y1="37.8808" x2="194.444" y2="109.579" gradientUnits="userSpaceOnUse">
<stop stop-color="#F9593E"/>
<stop offset="1" stop-color="#3A32C5"/>
</linearGradient>
<linearGradient id="paint6_linear" x1="217.114" y1="65.5815" x2="187.909" y2="125.426" gradientUnits="userSpaceOnUse">
<stop stop-color="#F9593E"/>
<stop offset="1" stop-color="#3A32FF"/>
</linearGradient>
<linearGradient id="paint7_linear" x1="239.492" y1="77.9559" x2="187.258" y2="112.06" gradientUnits="userSpaceOnUse">
<stop stop-color="#F9593E"/>
<stop offset="1" stop-color="#3A32CF"/>
</linearGradient>
<linearGradient id="paint8_linear" x1="133.402" y1="140.41" x2="131.341" y2="101.634" gradientUnits="userSpaceOnUse">
<stop offset="0.0176482" stop-color="#FFF5F3"/>
<stop offset="0.609257" stop-color="#FFECE9"/>
<stop offset="1" stop-color="#FF938F"/>
</linearGradient>
<linearGradient id="paint9_linear" x1="74.9092" y1="226.874" x2="92.629" y2="3.83743" gradientUnits="userSpaceOnUse">
<stop stop-color="#FF938F"/>
<stop offset="1" stop-color="#FFF5F3"/>
</linearGradient>
<linearGradient id="paint10_linear" x1="69.5653" y1="117.793" x2="137.69" y2="13.1818" gradientUnits="userSpaceOnUse">
<stop stop-color="#FFECE9"/>
<stop offset="0.494792" stop-color="#FF938F" stop-opacity="0.3"/>
<stop offset="0.947917" stop-color="#FF938F" stop-opacity="0"/>
</linearGradient>
<linearGradient id="paint11_linear" x1="116.729" y1="140.483" x2="81.2648" y2="98.6615" gradientUnits="userSpaceOnUse">
<stop offset="0.0176482" stop-color="#EDD7AD"/>
<stop offset="0.48158" stop-color="#FF9661"/>
<stop offset="1" stop-color="#E74A69"/>
</linearGradient>
<linearGradient id="paint12_linear" x1="124.887" y1="103.764" x2="110.029" y2="70.837" gradientUnits="userSpaceOnUse">
<stop offset="0.1" stop-color="#F9455A"/>
<stop offset="1" stop-color="#FCD059"/>
</linearGradient>
<linearGradient id="paint13_linear" x1="124.951" y1="106.436" x2="116.751" y2="72.3639" gradientUnits="userSpaceOnUse">
<stop offset="0.1" stop-color="#F9455A"/>
<stop offset="1" stop-color="#FCD059"/>
</linearGradient>
<linearGradient id="paint14_linear" x1="105.231" y1="92.4387" x2="104.53" y2="82.2708" gradientUnits="userSpaceOnUse">
<stop offset="0.1" stop-color="#F9455A"/>
<stop offset="1" stop-color="#FCD059"/>
</linearGradient>
<linearGradient id="paint15_linear" x1="105.686" y1="102.637" x2="101.777" y2="86.3754" gradientUnits="userSpaceOnUse">
<stop offset="0.1" stop-color="#F9455A"/>
<stop offset="1" stop-color="#FCD059"/>
</linearGradient>
<linearGradient id="paint16_linear" x1="71.115" y1="128.06" x2="71.004" y2="84.5747" gradientUnits="userSpaceOnUse">
<stop stop-color="#FFECE9"/>
<stop offset="1" stop-color="#FF938F"/>
</linearGradient>
<linearGradient id="paint17_linear" x1="60.3222" y1="128.093" x2="60.9" y2="103.709" gradientUnits="userSpaceOnUse">
<stop stop-color="#FFECE9"/>
<stop offset="1" stop-color="#FF938F"/>
</linearGradient>
<linearGradient id="paint18_linear" x1="73.3758" y1="49.6596" x2="73.3758" y2="1.10406" gradientUnits="userSpaceOnUse">
<stop stop-color="#FFF5F3"/>
<stop offset="0.275526" stop-color="#FFECE9"/>
<stop offset="0.436707" stop-color="#FFD8D5"/>
<stop offset="1" stop-color="#FF938F"/>
</linearGradient>
<linearGradient id="paint19_linear" x1="136.95" y1="92.7008" x2="101.746" y2="166.194" gradientUnits="userSpaceOnUse">
<stop stop-color="#F9593E"/>
<stop offset="1" stop-color="#3A32C5"/>
</linearGradient>
<linearGradient id="paint20_linear" x1="109.215" y1="124.971" x2="109.215" y2="94.2447" gradientUnits="userSpaceOnUse">
<stop stop-color="#FFECE9"/>
<stop offset="1" stop-color="#FF938F"/>
</linearGradient>
<linearGradient id="paint21_linear" x1="103.26" y1="102.53" x2="105.852" y2="95.1569" gradientUnits="userSpaceOnUse">
<stop stop-color="#FF938F"/>
<stop offset="0.739583" stop-color="#FFF5F3"/>
</linearGradient>
<linearGradient id="paint22_linear" x1="146.075" y1="126.529" x2="146.075" y2="91.6358" gradientUnits="userSpaceOnUse">
<stop stop-color="#FFECE9"/>
<stop offset="1" stop-color="#FF938F"/>
</linearGradient>
<linearGradient id="paint23_linear" x1="146.075" y1="109.282" x2="146.075" y2="89.4317" gradientUnits="userSpaceOnUse">
<stop stop-color="#FFECE9"/>
<stop offset="1" stop-color="#FF938F"/>
</linearGradient>
<linearGradient id="paint24_linear" x1="141.819" y1="100.37" x2="143.161" y2="93.8805" gradientUnits="userSpaceOnUse">
<stop stop-color="#FF938F"/>
<stop offset="0.602878" stop-color="#FFF5F3"/>
</linearGradient>
<linearGradient id="paint25_linear" x1="174.726" y1="146.836" x2="174.726" y2="87.0089" gradientUnits="userSpaceOnUse">
<stop stop-color="#FFF5F3"/>
<stop offset="0.5207" stop-color="#FFECE9"/>
<stop offset="1" stop-color="#FF938F"/>
</linearGradient>
<linearGradient id="paint26_linear" x1="170.474" y1="98.5787" x2="171.815" y2="92.0895" gradientUnits="userSpaceOnUse">
<stop stop-color="#FF938F"/>
<stop offset="0.602878" stop-color="#FFF5F3"/>
</linearGradient>
<linearGradient id="paint27_linear" x1="186.15" y1="146.836" x2="187.344" y2="90.645" gradientUnits="userSpaceOnUse">
<stop stop-color="#FFF5F3"/>
<stop offset="0.24443" stop-color="#FFECE9"/>
<stop offset="0.367752" stop-color="#FFDDDA"/>
<stop offset="1" stop-color="#FF938F"/>
</linearGradient>
<linearGradient id="paint28_linear" x1="92.5974" y1="92.3052" x2="108.474" y2="150.287" gradientUnits="userSpaceOnUse">
<stop stop-color="#F9593E"/>
<stop offset="1" stop-color="#3A32C5"/>
</linearGradient>
<linearGradient id="paint29_linear" x1="82.2123" y1="123.739" x2="82.2123" y2="75.1965" gradientUnits="userSpaceOnUse">
<stop stop-color="#FFECE9"/>
<stop offset="1" stop-color="#FF938F"/>
</linearGradient>
<linearGradient id="paint30_linear" x1="76.2576" y1="102.598" x2="78.8496" y2="95.2253" gradientUnits="userSpaceOnUse">
<stop stop-color="#FF938F"/>
<stop offset="0.739583" stop-color="#FFF5F3"/>
</linearGradient>
<linearGradient id="paint31_linear" x1="161.035" y1="41.5324" x2="148.437" y2="48.6097" gradientUnits="userSpaceOnUse">
<stop stop-color="#FFE8E1"/>
<stop offset="1" stop-color="#FCADBB"/>
</linearGradient>
<linearGradient id="paint32_linear" x1="152.269" y1="128.508" x2="165.532" y2="55.5982" gradientUnits="userSpaceOnUse">
<stop stop-color="#FFE8E1"/>
<stop offset="1" stop-color="#FCADBB"/>
</linearGradient>
<linearGradient id="paint33_linear" x1="163.074" y1="129.429" x2="187.311" y2="54.5102" gradientUnits="userSpaceOnUse">
<stop stop-color="#FFE8E1"/>
<stop offset="1" stop-color="#FCADBB"/>
</linearGradient>
<linearGradient id="paint34_linear" x1="160.181" y1="88.9066" x2="153.212" y2="15.8097" gradientUnits="userSpaceOnUse">
<stop stop-color="white"/>
<stop offset="1" stop-color="#CDDFEC"/>
</linearGradient>
<linearGradient id="paint35_linear" x1="152.852" y1="98.8849" x2="141.513" y2="147.757" gradientUnits="userSpaceOnUse">
<stop stop-color="white"/>
<stop offset="1" stop-color="#CDDFEC"/>
</linearGradient>
<linearGradient id="paint36_linear" x1="162.869" y1="98.0576" x2="158.579" y2="140.469" gradientUnits="userSpaceOnUse">
<stop stop-color="white"/>
<stop offset="1" stop-color="#CDDFEC"/>
</linearGradient>
<linearGradient id="paint37_linear" x1="159.085" y1="50.9641" x2="159.156" y2="46.5476" gradientUnits="userSpaceOnUse">
<stop stop-color="#FFE8E1"/>
<stop offset="1" stop-color="#FCADBB"/>
</linearGradient>
<linearGradient id="paint38_linear" x1="159.518" y1="58.1023" x2="161.837" y2="38.575" gradientUnits="userSpaceOnUse">
<stop stop-color="#FFE8E1"/>
<stop offset="1" stop-color="#FCADBB"/>
</linearGradient>
<linearGradient id="paint39_linear" x1="165.046" y1="45.9297" x2="153.081" y2="37.0163" gradientUnits="userSpaceOnUse">
<stop stop-color="#FFE8E1"/>
<stop offset="1" stop-color="#FCADBB"/>
</linearGradient>
<linearGradient id="paint40_linear" x1="170.097" y1="37.2484" x2="167.417" y2="49.6491" gradientUnits="userSpaceOnUse">
<stop stop-color="#FFE8E1"/>
<stop offset="1" stop-color="#FCADBB"/>
</linearGradient>
<linearGradient id="paint41_linear" x1="181.508" y1="74.979" x2="138.766" y2="27.5967" gradientUnits="userSpaceOnUse">
<stop offset="0.00286458" stop-color="#3DB6D3"/>
<stop offset="0.43264" stop-color="#3D6FD3"/>
<stop offset="1" stop-color="#252784"/>
</linearGradient>
<linearGradient id="paint42_linear" x1="68.2861" y1="65.956" x2="70.4554" y2="46.8962" gradientUnits="userSpaceOnUse">
<stop stop-color="#FFE8E1"/>
<stop offset="1" stop-color="#FCADBB"/>
</linearGradient>
<linearGradient id="paint43_linear" x1="20.4139" y1="104.407" x2="54.2365" y2="58.0548" gradientUnits="userSpaceOnUse">
<stop offset="0.00286458" stop-color="#3DB6D3"/>
<stop offset="0.43264" stop-color="#3D6FD3"/>
<stop offset="1" stop-color="#252784"/>
</linearGradient>
<linearGradient id="paint44_linear" x1="58.0806" y1="116.947" x2="72.4746" y2="91.0605" gradientUnits="userSpaceOnUse">
<stop offset="0.00286458" stop-color="#3DB6D3"/>
<stop offset="0.5015" stop-color="#3D6FD3"/>
<stop offset="1" stop-color="#252784"/>
</linearGradient>
<linearGradient id="paint45_linear" x1="58.0338" y1="76.3347" x2="59.1176" y2="56.9982" gradientUnits="userSpaceOnUse">
<stop stop-color="#FFE8E1"/>
<stop offset="1" stop-color="#FCADBB"/>
</linearGradient>
<linearGradient id="paint46_linear" x1="67.4141" y1="60.5179" x2="72.6423" y2="112.009" gradientUnits="userSpaceOnUse">
<stop stop-color="white"/>
<stop offset="1" stop-color="#CDDFEC"/>
</linearGradient>
<linearGradient id="paint47_linear" x1="63.0935" y1="47.2983" x2="43.5815" y2="82.6306" gradientUnits="userSpaceOnUse">
<stop stop-color="#FFE8E1"/>
<stop offset="1" stop-color="#FCADBB"/>
</linearGradient>
<linearGradient id="paint48_linear" x1="76.6221" y1="79.0815" x2="78.8349" y2="56.6394" gradientUnits="userSpaceOnUse">
<stop stop-color="#FFE8E1"/>
<stop offset="1" stop-color="#FCADBB"/>
</linearGradient>
<linearGradient id="paint49_linear" x1="72.4693" y1="86.0263" x2="73.8328" y2="59.1605" gradientUnits="userSpaceOnUse">
<stop stop-color="#FFE8E1"/>
<stop offset="1" stop-color="#FCADBB"/>
</linearGradient>
<linearGradient id="paint50_linear" x1="70.7112" y1="79.5865" x2="78.3862" y2="30.4007" gradientUnits="userSpaceOnUse">
<stop stop-color="white"/>
<stop offset="1" stop-color="#CDDFEC"/>
</linearGradient>
<linearGradient id="paint51_linear" x1="64.9699" y1="65.1506" x2="71.4848" y2="50.9954" gradientUnits="userSpaceOnUse">
<stop stop-color="white"/>
<stop offset="0.84" stop-color="#CDDFEC"/>
</linearGradient>
<linearGradient id="paint52_linear" x1="72.7204" y1="63.082" x2="69.9717" y2="52.3466" gradientUnits="userSpaceOnUse">
<stop stop-color="white"/>
<stop offset="1" stop-color="#CDDFEC"/>
</linearGradient>
<linearGradient id="paint53_linear" x1="66.3118" y1="63.2879" x2="68.7678" y2="39.803" gradientUnits="userSpaceOnUse">
<stop stop-color="#FFE8E1"/>
<stop offset="1" stop-color="#FCADBB"/>
</linearGradient>
<linearGradient id="paint54_linear" x1="68.8378" y1="55.4695" x2="69.3432" y2="49.6069" gradientUnits="userSpaceOnUse">
<stop stop-color="#FFE8E1"/>
<stop offset="1" stop-color="#FCADBB"/>
</linearGradient>
<linearGradient id="paint55_linear" x1="65.6229" y1="82.7024" x2="65.9852" y2="73.8877" gradientUnits="userSpaceOnUse">
<stop stop-color="#FFE8E1"/>
<stop offset="1" stop-color="#FCADBB"/>
</linearGradient>
</defs>
</svg>
